<svg width="219" height="363" viewBox="0 0 219 363" fill="none" xmlns="http://www.w3.org/2000/svg">
<g clip-path="url(#clip0_77_1263)">
<path d="M42.2066 82.9077H63.3574L72.3305 69.1168H99.5702L76.1761 106H28.4265L-24.4506 22.9332H-45.9219L-69.3159 60.4574H-23.4892L-19.4833 55.1655L-4.22109 78.4177L-7.46581 82.9077H-82.902L-98.158 106H-127L-60.0224 0.162109H-10.35L42.2066 82.9077Z" fill="white"/>
<path d="M128.092 23.5746L114.953 44.7421H88.0334L101.493 23.5746H31.6311L25.3135 32.2341L8.96968 6.25578L13.685 0.162109H142.993L128.092 23.5746Z" fill="white"/>
<path d="M261.287 82.8727H282.47L291.457 69.0606H318.739L295.309 106H247.486L194.527 22.8061H173.023L149.593 60.3879H195.49L199.502 55.0879L214.788 78.3757L211.538 82.8727H135.986L120.707 106H91.8203L158.901 0H208.649L261.287 82.8727Z" fill="white"/>
<path d="M347.304 23.4485L334.145 44.6485H307.184L320.664 23.4485H250.695L244.368 32.1212L227.999 6.10303L232.721 0H362.228L347.304 23.4485Z" fill="white"/>
<path d="M-31.7934 203.908H-10.6426L-1.66953 190.117H25.5702L2.17607 227H-45.5735L-98.4506 143.933H-119.922L-143.316 181.457H-97.4892L-93.4833 176.165L-78.2211 199.418L-81.4658 203.908H-156.902L-172.158 227H-201L-134.022 121.162H-84.35L-31.7934 203.908Z" fill="white"/>
<path d="M54.0917 144.575L40.9526 165.742H14.0334L27.493 144.575H-42.3689L-48.6865 153.234L-65.0303 127.256L-60.315 121.162H68.9934L54.0917 144.575Z" fill="white"/>
<path d="M187.287 203.873H208.47L217.457 190.061H244.739L221.309 227H173.486L120.527 143.806H99.023L75.593 181.388H121.49L125.502 176.088L140.788 199.376L137.538 203.873H61.9861L46.7066 227H17.8203L84.9008 121H134.649L187.287 203.873Z" fill="white"/>
<path d="M273.304 144.448L260.145 165.648H233.184L246.664 144.448H176.695L170.368 153.121L153.999 127.103L158.721 121H288.228L273.304 144.448Z" fill="white"/>
<path d="M113.461 324.873H134.644L143.631 311.061H170.912L147.482 348H99.6594L46.7011 264.806H25.1968L1.76681 302.388H47.664L51.676 297.088L66.9617 320.376L63.712 324.873H-11.8401L-27.1195 348H-56.0059L11.0746 242H60.8233L113.461 324.873Z" fill="white"/>
<path d="M199.478 265.448L186.318 286.648H159.358L172.838 265.448H102.869L96.5416 274.121L80.1727 248.103L84.8953 242H214.402L199.478 265.448Z" fill="white"/>
<path d="M332.869 324.873H354.052L363.039 311.061H390.321L366.891 348H319.068L266.109 264.806H244.605L221.175 302.388H267.072L271.084 297.088L286.37 320.376L283.12 324.873H207.568L192.289 348H163.402L230.483 242H280.232L332.869 324.873Z" fill="white"/>
<path d="M418.886 265.448L405.727 286.648H378.766L392.246 265.448H322.277L315.95 274.121L299.581 248.103L304.303 242H433.811L418.886 265.448Z" fill="white"/>
</g>
<defs>
<clipPath id="clip0_77_1263">
<rect width="219" height="363" fill="white"/>
</clipPath>
</defs>
</svg>
