<svg width="182" height="256" viewBox="0 0 182 256" fill="none" xmlns="http://www.w3.org/2000/svg">
<g clip-path="url(#clip0_160_491)">
<path d="M36.3838 0.511957C47.5592 0.37329 58.7347 0.46929 69.9101 0.463957C69.9367 3.96796 69.9899 7.47196 69.8622 10.976C62.1192 10.9226 54.3816 10.976 46.6439 11.024C46.5907 16.112 46.4896 21.2 46.5375 26.288C54.3071 26.336 62.082 26.4106 69.8516 26.3786C69.942 29.2586 69.9101 32.1493 69.825 35.0346C58.6815 34.96 47.5379 34.992 36.3944 35.0026C36.421 23.504 36.4423 12.0106 36.3838 0.511957Z" fill="black"/>
<path d="M73.8964 0.474466C85.2102 0.453133 96.524 0.383799 107.843 0.511799C107.801 3.8238 107.833 7.13047 107.833 10.4425C99.5999 10.4158 91.362 10.4531 83.1295 10.5491C83.1401 11.8505 83.1401 13.1518 83.1295 14.4531C91.3514 14.5865 99.568 14.6025 107.785 14.6505C107.817 21.4398 107.801 28.2238 107.843 35.0078C96.524 34.9865 85.2049 34.9971 73.8858 35.0505C73.8272 32.3091 73.8219 29.5731 73.9017 26.8318C81.7458 26.8531 89.5953 26.8638 97.4394 26.7998C97.4872 25.0345 97.5085 23.2638 97.5032 21.4985C89.6219 21.4985 81.7352 21.5251 73.8538 21.4718C73.8538 14.4745 73.8539 7.4718 73.8964 0.474466Z" fill="black"/>
<path d="M111.632 0.533203C122.924 0.533203 134.222 0.533203 145.514 0.533203C145.562 3.8612 145.61 7.1892 145.504 10.5119C137.234 10.5065 128.964 10.5545 120.694 10.5705C120.716 11.9305 120.747 13.2905 120.817 14.6505C129.039 14.6132 137.261 14.7145 145.477 14.7999C145.552 21.5572 145.605 28.3145 145.509 35.0719C134.19 35.0399 122.871 35.0399 111.552 35.0932C111.482 32.3625 111.461 29.6212 111.578 26.8905C119.406 26.9492 127.24 26.9385 135.073 26.8639C135.095 25.0932 135.132 23.3225 135.116 21.5572C127.256 21.6319 119.39 21.5892 111.525 21.5625C111.525 14.5545 111.578 7.5412 111.632 0.533203Z" fill="black"/>
<path d="M0 49.3118C60.6241 49.3065 121.243 49.3012 181.867 49.3118C178.53 87.0985 175.247 124.885 171.772 162.661C169.707 186.805 167.578 210.949 165.333 235.077C152.396 238.512 139.587 242.426 126.655 245.877C114.777 249.37 102.803 252.533 90.9202 256H90.569C79.2605 252.629 67.8402 249.664 56.5318 246.293C43.1851 242.688 29.9555 238.666 16.6035 235.077C14.8633 216.992 13.2935 198.896 11.7449 180.8C8.82328 147.365 5.64626 113.952 2.83643 80.5118C1.86257 70.4478 1.16544 60.3518 0 50.3092V49.3118ZM91.2182 64.2185C91.0905 71.4772 91.314 78.7412 91.0905 85.9945C70.2935 85.9198 49.4912 85.9785 28.6943 85.9998C29.0508 93.0452 29.9928 100.042 30.9613 107.029C50.3108 107.749 69.6868 107.002 89.0363 107.584C72.1082 115.194 54.9725 122.362 37.9699 129.813C36.5118 130.464 34.9525 130.954 33.6487 131.904C33.7924 139.642 35.0377 147.338 35.5858 155.061C45.8991 155.024 56.2071 154.858 66.5205 154.842C74.785 154.8 83.0548 154.965 91.3193 154.784C90.9255 167.509 91.4417 180.25 91.0532 192.976C85.4921 192.149 80.0002 190.906 74.4604 189.92C70.0913 188.965 65.6158 188.469 61.3106 187.216C60.6986 181.109 60.2729 174.981 59.7301 168.869C58.4848 168.485 57.165 168.522 55.8772 168.501C49.6296 168.538 43.3767 168.48 37.1237 168.576C37.7357 180.325 38.7894 192.058 40.5828 203.696C46.7453 205.306 52.9184 206.885 59.0702 208.565C68.4948 211.136 78.0365 213.274 87.4771 215.802C88.6 216.042 89.7335 216.458 90.8989 216.362C91.5269 224.09 91.0426 231.866 91.1597 239.616C93.3362 239.264 95.4755 238.725 97.5776 238.074C115.448 233.21 133.296 228.256 151.156 223.344C152.045 216.304 152.46 209.216 153.162 202.16C155.019 180.709 156.893 159.258 158.84 137.813C161.123 113.28 163.098 88.7198 165.397 64.1865C140.667 64.2078 115.943 64.1385 91.2182 64.2185Z" fill="#0170BA"/>
<path d="M91.2177 64.2184C115.942 64.1384 140.666 64.2077 165.396 64.1864C163.097 88.7197 161.123 113.28 158.84 137.813C156.892 159.258 155.019 180.709 153.162 202.16C152.459 209.216 152.044 216.304 151.155 223.344C133.296 228.256 115.447 233.21 97.5771 238.074C95.475 238.725 93.3358 239.264 91.1592 239.616C91.0421 231.866 91.5264 224.09 90.8984 216.362C91.0581 216.33 91.3827 216.266 91.5424 216.234C108.162 212.053 124.67 207.45 141.252 203.12C143.348 179.546 145.674 155.984 147.148 132.362C133.046 132.437 118.938 132.394 104.836 132.453C102.782 132.464 100.728 132.453 98.684 132.304C106.273 128.389 114.255 125.285 122.046 121.792C129.523 118.394 137.09 115.21 144.594 111.877C146.041 111.21 147.585 110.656 148.856 109.664C149.357 107.824 149.33 105.898 149.527 104.016C149.958 98.0424 150.724 92.1011 151.012 86.1224C131.04 85.9624 111.067 86.1011 91.09 85.9944C91.3135 78.7411 91.09 71.4771 91.2177 64.2184Z" fill="#29A9DF"/>
<path d="M91.3188 154.783C100.962 154.618 110.61 154.879 120.258 154.815C119.72 164.698 118.901 174.565 118.39 184.447C112.478 186.383 106.475 188.021 100.515 189.813C97.3376 190.783 94.0754 191.551 91.0527 192.975C91.4412 180.25 90.925 167.509 91.3188 154.783Z" fill="#29A9DF"/>
<path d="M28.6943 86.0001C49.4913 85.9788 70.2936 85.9201 91.0905 85.9948C91.3619 108.928 91.0214 131.861 91.3194 154.784C83.0549 154.965 74.785 154.8 66.5205 154.843C56.2072 154.859 45.8992 155.024 35.5859 155.061C35.0377 147.339 33.7925 139.643 33.6488 131.904C34.9526 130.955 36.5118 130.464 37.97 129.813C54.9726 122.363 72.1083 115.195 89.0364 107.584C69.6869 107.003 50.3108 107.749 30.9614 107.029C29.9928 100.043 29.0509 93.0454 28.6943 86.0001Z" fill="#CFCFCF"/>
<path d="M37.124 168.576C43.3769 168.48 49.6299 168.538 55.8775 168.501C57.1653 168.522 58.4851 168.485 59.7303 168.869C60.2731 174.981 60.6989 181.109 61.3109 187.216C65.6161 188.469 70.0916 188.965 74.4606 189.92C80.0005 190.906 85.4924 192.149 91.0535 192.976C91.5857 200.72 90.6544 208.517 91.5431 216.234C91.3834 216.266 91.0588 216.33 90.8992 216.362C89.7337 216.458 88.6002 216.042 87.4774 215.802C78.0368 213.274 68.4951 211.136 59.0705 208.565C52.9186 206.885 46.7455 205.306 40.5831 203.696C38.7897 192.058 37.736 180.325 37.124 168.576Z" fill="#CFCFCF"/>
<path d="M91.09 85.9951C111.067 86.1018 131.04 85.9631 151.012 86.1231C150.724 92.1018 149.958 98.0431 149.527 104.016C149.33 105.899 149.357 107.824 148.856 109.664C147.584 110.656 146.041 111.211 144.594 111.878C137.09 115.211 129.523 118.395 122.046 121.792C114.255 125.286 106.273 128.39 98.684 132.304C100.727 132.454 102.782 132.464 104.836 132.454C118.938 132.395 133.046 132.438 147.148 132.363C145.674 155.984 143.348 179.547 141.252 203.12C124.67 207.451 108.162 212.054 91.5423 216.235C90.6536 208.518 91.5849 200.72 91.0527 192.976C94.0754 191.552 97.3376 190.784 100.515 189.814C106.475 188.022 112.478 186.384 118.39 184.448C118.901 174.566 119.72 164.699 120.258 154.816C110.61 154.88 100.962 154.619 91.3188 154.784C91.0208 131.862 91.3614 108.928 91.09 85.9951Z" fill="white"/>
</g>
<defs>
<clipPath id="clip0_160_491">
<rect width="182" height="256" fill="white"/>
</clipPath>
</defs>
</svg>
