<svg width="256" height="256" viewBox="0 0 256 256" fill="none" xmlns="http://www.w3.org/2000/svg">
<g clip-path="url(#clip0_160_548)">
<path d="M255 105.58C254.29 104.985 247.875 100.11 234.105 100.11C230.484 100.131 226.87 100.449 223.3 101.06C220.69 82.8599 205.61 74.0599 205.015 73.5599L201.335 71.4199L198.96 74.8699C195.966 79.5536 193.76 84.697 192.43 90.0949C189.93 100.445 191.48 110.195 196.705 118.52C190.41 122.09 180.205 122.92 178.065 123.02H9.47045C8.41983 123.019 7.37945 123.226 6.40924 123.63C5.43903 124.033 4.55816 124.624 3.81735 125.369C3.07655 126.114 2.49045 126.998 2.09281 127.97C1.69517 128.943 1.49385 129.984 1.50045 131.035C1.27397 145.837 3.77395 160.553 8.87545 174.45C14.6954 189.675 23.3604 201 34.5004 207.87C47.1104 215.6 67.6505 220 90.8005 220C101.274 220 111.726 219.045 122.025 217.145C136.385 214.541 150.197 209.514 162.87 202.28C173.304 196.218 182.687 188.506 190.655 179.445C204.07 164.34 212.025 147.445 217.845 132.445H220.22C234.825 132.445 243.85 126.615 248.835 121.62C252.144 118.484 254.737 114.67 256.435 110.44L257.505 107.35L255 105.58Z" fill="#1C90ED"/>
<path d="M25.1445 118.185H47.6995C48.23 118.185 48.7387 117.975 49.1137 117.6C49.4888 117.224 49.6995 116.716 49.6995 116.185V95.9453C49.6995 95.4149 49.4888 94.9062 49.1137 94.5311C48.7387 94.156 48.23 93.9453 47.6995 93.9453H25.1445C24.6141 93.9453 24.1054 94.156 23.7303 94.5311C23.3552 94.9062 23.1445 95.4149 23.1445 95.9453V116.165C23.1643 116.689 23.3814 117.187 23.7523 117.558C24.1231 117.928 24.6204 118.146 25.1445 118.165" fill="#1C90ED"/>
<path d="M56.25 118.185H78.81C79.3404 118.185 79.8491 117.975 80.2242 117.6C80.5993 117.224 80.81 116.716 80.81 116.185V95.9453C80.81 95.4149 80.5993 94.9062 80.2242 94.5311C79.8491 94.156 79.3404 93.9453 78.81 93.9453H56.25C55.7196 93.9453 55.2109 94.156 54.8358 94.5311C54.4607 94.9062 54.25 95.4149 54.25 95.9453V116.165C54.2698 116.689 54.4869 117.187 54.8577 117.558C55.2286 117.928 55.7259 118.146 56.25 118.165" fill="#1C90ED"/>
<path d="M87.9503 118.185H110.5C111.031 118.185 111.539 117.975 111.915 117.6C112.29 117.224 112.5 116.716 112.5 116.185V95.9453C112.5 95.4149 112.29 94.9062 111.915 94.5311C111.539 94.156 111.031 93.9453 110.5 93.9453H87.9503C87.4199 93.9453 86.9112 94.156 86.5361 94.5311C86.1611 94.9062 85.9503 95.4149 85.9503 95.9453V116.165C85.9413 116.43 85.9868 116.695 86.0841 116.941C86.1814 117.188 86.3284 117.412 86.516 117.6C86.7035 117.787 86.9276 117.934 87.1744 118.032C87.4211 118.129 87.6853 118.174 87.9503 118.165" fill="#1C90ED"/>
<path d="M119.18 118.185H141.74C142.27 118.185 142.779 117.975 143.154 117.6C143.529 117.224 143.74 116.716 143.74 116.185V95.9453C143.74 95.4149 143.529 94.9062 143.154 94.5311C142.779 94.156 142.27 93.9453 141.74 93.9453H119.18C118.649 93.9453 118.141 94.156 117.765 94.5311C117.39 94.9062 117.18 95.4149 117.18 95.9453V116.165C117.18 116.696 117.39 117.204 117.765 117.58C118.141 117.955 118.649 118.165 119.18 118.165" fill="#1C90ED"/>
<path d="M56.25 89.2849H78.81C79.3341 89.2651 79.8314 89.0481 80.2023 88.6772C80.5731 88.3063 80.7902 87.809 80.81 87.2849V67.0449C80.81 66.5145 80.5993 66.0058 80.2242 65.6307C79.8491 65.2556 79.3404 65.0449 78.81 65.0449H56.25C55.7196 65.0449 55.2109 65.2556 54.8358 65.6307C54.4607 66.0058 54.25 66.5145 54.25 67.0449V87.2649C54.2892 87.7824 54.5125 88.2686 54.8794 88.6355C55.2463 89.0025 55.7326 89.2258 56.25 89.2649" fill="#1C90ED"/>
<path d="M87.9502 89.2849H110.5C111.024 89.2651 111.522 89.0481 111.892 88.6772C112.263 88.3063 112.48 87.809 112.5 87.2849V67.0449C112.5 66.5145 112.289 66.0058 111.914 65.6307C111.539 65.2556 111.031 65.0449 110.5 65.0449H87.9502C87.4198 65.0449 86.9111 65.2556 86.536 65.6307C86.1609 66.0058 85.9502 66.5145 85.9502 67.0449V87.2649C85.9502 87.7954 86.1609 88.3041 86.536 88.6791C86.9111 89.0542 87.4198 89.2649 87.9502 89.2649" fill="#1C90ED"/>
<path d="M119.18 89.2849H141.74C142.264 89.2651 142.761 89.0481 143.132 88.6772C143.503 88.3063 143.72 87.809 143.74 87.2849V67.0449C143.72 66.5208 143.503 66.0235 143.132 65.6527C142.761 65.2818 142.264 65.0647 141.74 65.0449H119.18C118.649 65.0449 118.141 65.2556 117.765 65.6307C117.39 66.0058 117.18 66.5145 117.18 67.0449V87.2649C117.199 87.789 117.417 88.2863 117.787 88.6572C118.158 89.0281 118.656 89.2451 119.18 89.2649" fill="#1C90ED"/>
<path d="M119.18 60.265H141.74C142.27 60.265 142.779 60.0543 143.154 59.6792C143.529 59.3041 143.74 58.7954 143.74 58.265V38C143.72 37.4759 143.503 36.9786 143.132 36.6077C142.761 36.2369 142.264 36.0198 141.74 36H119.18C118.649 36 118.141 36.2107 117.765 36.5858C117.39 36.9609 117.18 37.4696 117.18 38V58.22C117.201 58.7437 117.418 59.2404 117.789 59.611C118.159 59.9816 118.656 60.1991 119.18 60.22" fill="#1C90ED"/>
<path d="M150.641 118.185H173.201C173.731 118.185 174.24 117.975 174.615 117.6C174.99 117.224 175.201 116.716 175.201 116.185V95.9453C175.201 95.4149 174.99 94.9062 174.615 94.5311C174.24 94.156 173.731 93.9453 173.201 93.9453H150.641C150.11 93.9453 149.601 94.156 149.226 94.5311C148.851 94.9062 148.641 95.4149 148.641 95.9453V116.165C148.66 116.689 148.877 117.187 149.248 117.558C149.619 117.928 150.117 118.146 150.641 118.165" fill="#1C90ED"/>
</g>
<defs>
<clipPath id="clip0_160_548">
<rect width="256" height="256" fill="white"/>
</clipPath>
</defs>
</svg>
