<svg width="256" height="256" viewBox="0 0 256 256" fill="none" xmlns="http://www.w3.org/2000/svg">
<path d="M20.6829 139.306C14.439 133.062 14.439 122.938 20.6829 116.694L116.694 20.6829C122.938 14.439 133.062 14.439 139.306 20.6829L235.317 116.694C241.561 122.938 241.561 133.062 235.317 139.306L139.306 235.317C133.062 241.561 122.938 241.561 116.694 235.317L20.6829 139.306Z" fill="#EE513B"/>
<path d="M97.1911 40.4922L87.4688 50.2149L112.58 75.3262C111.564 77.5055 110.997 79.9361 110.997 82.4992C110.997 89.776 115.569 95.9848 121.997 98.4096V159.838C115.569 162.263 110.997 168.472 110.997 175.749C110.997 185.138 118.608 192.749 127.997 192.749C137.386 192.749 144.997 185.138 144.997 175.749C144.997 169.152 141.239 163.432 135.747 160.614V98.4936L159.751 122.498C158.785 124.633 158.247 127.003 158.247 129.499C158.247 138.888 165.858 146.499 175.247 146.499C184.636 146.499 192.247 138.888 192.247 129.499C192.247 120.11 184.636 112.499 175.247 112.499C173.422 112.499 171.666 112.786 170.018 113.318L144.238 87.5384C144.731 85.9464 144.997 84.2536 144.997 82.4992C144.997 73.1103 137.386 65.4991 127.997 65.4991C126.242 65.4991 124.55 65.7649 122.958 66.2584L97.1911 40.4922Z" fill="white"/>
</svg>
