<svg width="256" height="256" viewBox="0 0 256 256" fill="none" xmlns="http://www.w3.org/2000/svg">
<path d="M128.398 67.525C181.102 26.6086 154.053 0 154.053 0C158.078 42.299 110.504 52.2866 97.7513 81.3536C89.0497 101.188 103.711 118.554 128.38 140.443C126.199 135.595 122.835 130.885 119.43 126.116C107.815 109.85 95.7161 92.9056 128.398 67.525Z" fill="#E76F00"/>
<path d="M136.812 149.416C136.812 149.416 152.668 136.624 140.111 122.407C97.545 74.1754 186.667 52.2871 186.667 52.2871C132.254 78.5005 140.377 94.0597 154.054 112.962C168.697 133.231 136.812 149.416 136.812 149.416Z" fill="#E76F00"/>
<path d="M183.496 187.565C232.339 162.607 209.756 138.623 193.994 141.854C190.13 142.644 188.407 143.33 188.407 143.33C188.407 143.33 189.842 141.12 192.581 140.163C223.764 129.383 247.746 171.959 182.515 188.823C182.515 188.823 183.271 188.159 183.496 187.565Z" fill="#5382A1"/>
<path d="M81.8635 155.975C51.3045 151.962 98.6195 140.911 98.6195 140.911C98.6195 140.911 80.2451 139.692 57.6469 150.434C30.9257 163.145 123.744 168.926 171.792 156.5C176.787 153.145 183.691 150.238 183.691 150.238C183.691 150.238 164.029 153.691 144.448 155.316C120.489 157.289 94.7667 157.674 81.8635 155.975Z" fill="#5382A1"/>
<path d="M93.4912 179.806C76.4499 178.074 87.608 169.951 87.608 169.951C43.5118 184.343 112.142 200.664 173.759 182.946C167.21 180.675 163.045 176.522 163.045 176.522C132.93 182.225 115.528 182.042 93.4912 179.806Z" fill="#5382A1"/>
<path d="M100.916 205.593C83.8875 203.668 93.8355 197.979 93.8355 197.979C53.807 208.978 118.183 231.7 169.146 210.222C160.799 207.03 154.822 203.345 154.822 203.345C132.088 207.575 121.544 207.907 100.916 205.593Z" fill="#5382A1"/>
<path d="M207.51 218.71C207.51 218.71 214.871 224.675 199.402 229.289C169.985 238.053 76.9674 240.699 51.1275 229.639C41.8387 225.665 59.2578 220.151 64.7372 218.993C70.4517 217.775 73.7173 218.002 73.7173 218.002C63.3872 210.846 6.94791 232.053 45.0489 238.127C148.956 254.697 234.462 230.665 207.51 218.71Z" fill="#5382A1"/>
<path d="M224 231.743C222.295 253.558 150.302 258.146 103.419 255.195C72.8345 253.266 66.7049 248.446 66.6152 248.376C95.8872 253.122 145.239 253.986 185.254 246.58C220.722 240.013 224 231.743 224 231.743Z" fill="#5382A1"/>
</svg>
