<svg width="256" height="256" viewBox="0 0 256 256" fill="none" xmlns="http://www.w3.org/2000/svg">
<path fill-rule="evenodd" clip-rule="evenodd" d="M58.2606 43.0941C55.3486 43.0402 53.288 43.4099 51.1114 43.8876V44.283H51.5095C52.9007 47.137 55.3539 48.9749 57.0704 51.4335C58.3901 54.2146 59.7139 56.9917 61.0377 59.7688C61.1726 59.6365 61.3062 59.5056 61.4357 59.3734C63.8984 57.6421 65.0211 54.8704 65.0103 50.6387C64.0225 49.5996 63.8755 48.3015 63.0226 47.0641C61.8918 45.4138 59.6923 44.4813 58.2606 43.0941ZM250.439 246.794C252.313 248.169 253.57 250.301 256 251.165V250.767C254.721 249.145 254.396 246.906 253.222 245.206C251.505 243.489 249.775 241.766 248.059 240.043C243.009 233.343 236.606 227.462 229.795 222.575C224.369 218.674 212.208 213.411 209.941 207.092C209.811 206.957 209.676 206.823 209.541 206.688C213.391 206.256 217.902 204.864 221.455 203.91C227.425 202.309 232.762 202.725 238.923 201.131C241.707 200.334 244.484 199.538 247.263 198.751V197.157C244.147 193.959 241.926 189.727 238.531 186.833C229.635 179.266 219.934 171.698 209.939 165.394C204.401 161.893 197.548 159.622 191.674 156.656C189.698 155.66 186.23 155.141 184.923 153.48C181.842 149.545 180.159 144.559 177.779 139.978C172.797 130.379 167.897 119.897 163.481 109.798C160.473 102.913 158.504 96.1232 154.749 89.9442C136.719 60.3018 117.308 42.4087 87.2472 24.8218C80.8456 21.0826 73.1459 19.6064 65.0103 17.6767C60.645 17.4136 56.2715 17.1451 51.9062 16.8819C49.2411 15.7687 46.4695 12.5085 43.9663 10.9256C34.005 4.6347 8.45665 -9.05234 1.08349 8.94201C-3.57466 20.2973 8.04104 31.3786 12.1986 37.1352C15.1173 41.1712 18.8484 45.6985 20.9373 50.2366C22.307 53.2201 22.5404 56.2144 23.7211 59.3707C26.6062 67.1487 29.1134 75.6095 32.8458 82.7991C34.7364 86.4344 36.8185 90.2681 39.2042 93.5188C40.6684 95.5146 43.1702 96.393 43.5628 99.4751C41.1164 102.907 40.976 108.231 39.601 112.578C33.3937 132.147 35.7349 156.466 44.7638 170.95C47.5301 175.394 54.0558 184.933 63.0226 181.272C70.8667 178.077 69.1179 168.172 71.362 159.435C71.8666 157.45 71.559 155.994 72.5521 154.67V155.065C74.9379 159.83 77.321 164.595 79.7013 169.358C84.9937 177.877 94.3815 186.786 102.338 192.789C106.457 195.904 109.705 201.291 115.042 203.114V202.71H114.644C113.605 201.106 111.989 200.432 110.677 199.141C107.568 196.093 104.112 192.306 101.54 188.815C94.3019 178.993 87.9097 168.241 82.0857 157.052C79.3019 151.707 76.8837 145.811 74.5371 140.374C73.6344 138.276 73.6452 135.106 71.7587 134.02C69.1894 138.003 65.407 141.228 63.4194 145.932C60.2429 153.454 59.834 162.626 58.656 172.138C57.9597 172.389 58.2687 172.218 57.8585 172.533C52.3259 171.203 50.3841 165.508 48.3303 160.623C43.1337 148.274 42.1689 128.385 46.742 114.166C47.9255 110.489 53.2799 98.9016 51.1074 95.5038C50.0737 92.1114 46.6678 90.1534 44.7611 87.5612C42.3915 84.3577 40.0355 80.1435 38.3973 76.442C34.1494 66.8127 32.163 56.0026 27.6844 46.2666C25.5415 41.6152 21.921 36.9031 18.9469 32.7644C15.6544 28.1819 11.9665 24.8083 9.41743 19.2623C8.50928 17.2935 7.27457 14.1426 8.62128 12.1172C9.04634 10.7502 9.65358 10.1808 11.007 9.73411C13.3132 7.95829 19.7215 10.3251 22.1221 11.3224C28.4859 13.9658 33.8053 16.4852 39.1988 20.0571C41.7857 21.7735 44.4049 25.0958 47.5314 26.0147H51.106C56.7007 27.298 62.9633 26.4155 68.1814 28.001C77.4127 30.8064 85.6846 35.1704 93.1967 39.9149C116.081 54.363 134.795 74.9361 147.595 99.4751C149.655 103.426 150.548 107.196 152.359 111.389C156.017 119.84 160.631 128.535 164.271 136.801C167.903 145.043 171.443 153.365 176.578 160.228C179.277 163.834 189.708 165.769 194.451 167.774C197.773 169.176 203.215 170.641 206.358 172.533C212.374 176.162 218.194 180.477 223.831 184.45C226.649 186.438 235.314 190.791 235.74 194.372C221.778 194.002 211.111 195.299 201.991 199.142C199.399 200.231 195.269 200.264 194.842 203.506C196.267 204.999 196.493 207.233 197.626 209.067C199.797 212.592 203.473 217.311 206.756 219.791C210.341 222.496 214.035 225.391 217.873 227.732C224.707 231.902 232.339 234.281 238.917 238.455C242.808 240.919 246.658 244.015 250.439 246.794Z" fill="#5D87A1"/>
</svg>
