<svg width="256" height="138" viewBox="0 0 256 138" fill="none" xmlns="http://www.w3.org/2000/svg">
<g clip-path="url(#clip0_168_498)">
<mask id="mask0_168_498" style="mask-type:luminance" maskUnits="userSpaceOnUse" x="3" y="3" width="250" height="132">
<path d="M3.59961 68.9999C3.59961 105.12 59.2967 134.402 128 134.402C196.703 134.402 252.401 105.12 252.401 68.9999C252.401 32.8799 196.703 3.5974 128 3.5974C59.2967 3.5974 3.59961 32.8799 3.59961 68.9999Z" fill="white"/>
</mask>
<g mask="url(#mask0_168_498)">
<path d="M3.59961 68.9999C3.59961 105.12 59.2967 134.402 128 134.402C196.703 134.402 252.401 105.12 252.401 68.9999C252.401 32.8799 196.703 3.5974 128 3.5974C59.2967 3.5974 3.59961 32.8799 3.59961 68.9999Z" fill="url(#paint0_radial_168_498)"/>
</g>
<mask id="mask1_168_498" style="mask-type:luminance" maskUnits="userSpaceOnUse" x="-2" y="-4" width="260" height="146">
<path d="M-1.58398 -3.84997H257.583V141.85H-1.58398V-3.84997Z" fill="white"/>
</mask>
<g mask="url(#mask1_168_498)">
<path d="M128 129.546C194.02 129.546 247.541 102.438 247.541 68.9992C247.541 35.5607 194.02 8.45244 128 8.45244C61.9801 8.45244 8.45898 35.5607 8.45898 68.9992C8.45898 102.438 61.9801 129.546 128 129.546Z" fill="#777BB3"/>
</g>
<mask id="mask2_168_498" style="mask-type:luminance" maskUnits="userSpaceOnUse" x="-2" y="-4" width="260" height="146">
<path d="M-1.58398 -3.84997H257.583V141.85H-1.58398V-3.84997Z" fill="white"/>
</mask>
<g mask="url(#mask2_168_498)">
<path d="M71.1871 76.5071C76.6157 76.5071 80.6683 75.5066 83.2325 73.5342C85.7693 71.5821 87.5214 68.2 88.4397 63.4823C89.296 59.0726 88.9697 55.9936 87.4705 54.332C85.9376 52.6349 82.6233 51.7742 77.6199 51.7742H68.9446L64.1351 76.5071H71.1871ZM42.8124 106.974C42.4097 106.974 42.0272 106.794 41.7712 106.483C41.5147 106.172 41.4108 105.763 41.4877 105.367L54.2337 39.8246C54.357 39.1909 54.9127 38.7332 55.5588 38.7332H83.0296C91.6631 38.7332 98.0892 41.076 102.128 45.6975C106.189 50.3433 107.443 56.8372 105.855 64.9987C105.209 68.3237 104.098 71.4117 102.552 74.1764C101.005 76.9442 98.9598 79.5052 96.473 81.7896C93.4962 84.5741 90.127 86.5932 86.4681 87.7813C82.8672 88.9537 78.2427 89.5481 72.7232 89.5481H61.5997L58.4231 105.882C58.2998 106.516 57.7446 106.974 57.0985 106.974H42.8124Z" fill="black"/>
<path d="M70.0576 53.1228H77.6202C83.6589 53.1228 85.7566 54.4471 86.4693 55.2363C87.6517 56.5467 87.8749 59.3096 87.1149 63.226C86.2609 67.6105 84.678 70.7192 82.4094 72.4649C80.0868 74.2519 76.3109 75.1576 71.1874 75.1576H65.7728L70.0576 53.1228ZM83.0299 37.3837H55.5586C54.2664 37.3837 53.1555 38.2992 52.9089 39.5669L40.1629 105.11C40.0091 105.901 40.2169 106.719 40.7294 107.341C41.2424 107.963 42.0064 108.322 42.8127 108.322H57.0983C58.391 108.322 59.5019 107.407 59.7485 106.139L62.7127 90.8968H72.7235C78.3847 90.8968 83.1505 90.2798 86.8873 89.0634C90.7302 87.8155 94.2659 85.6997 97.3952 82.7749C99.9833 80.3952 102.115 77.724 103.73 74.8347C105.346 71.9446 106.507 68.7217 107.181 65.2554C108.852 56.6646 107.494 49.7852 103.145 44.8098C98.8382 39.8821 92.0702 37.3837 83.0299 37.3837ZM62.4977 77.8558H71.1874C76.9471 77.8558 81.2373 76.7716 84.0562 74.6027C86.8756 72.4334 88.777 68.8129 89.7651 63.7395C90.7104 58.8685 90.2798 55.4311 88.4733 53.4286C86.6645 51.4261 83.0475 50.4247 77.6202 50.4247H67.8322L62.4977 77.8558ZM83.0299 40.0818C91.294 40.0818 97.3228 42.2493 101.112 46.5848C104.901 50.9202 106.042 56.9717 104.53 64.741C103.908 67.9414 102.856 70.8676 101.374 73.5185C99.8906 76.1712 97.9536 78.5969 95.5599 80.7963C92.7073 83.4643 89.5383 85.3656 86.0513 86.4979C82.5642 87.6334 78.1228 88.1986 72.7235 88.1986H60.4869L57.0983 105.624H42.8127L55.5586 40.0818H83.0299Z" fill="white"/>
<path d="M138.61 89.5479C138.207 89.5479 137.825 89.368 137.569 89.0568C137.312 88.7461 137.208 88.3373 137.285 87.9416L142.923 58.9415C143.46 56.1835 143.328 54.204 142.551 53.3676C142.076 52.8563 140.649 51.9987 136.429 51.9987H126.214L119.126 88.456C119.002 89.0901 118.447 89.5479 117.8 89.5479H103.627C103.224 89.5479 102.842 89.368 102.586 89.0568C102.329 88.7461 102.225 88.3368 102.302 87.9416L115.048 22.3988C115.171 21.7652 115.727 21.3074 116.373 21.3074H130.546C130.95 21.3074 131.332 21.4873 131.588 21.798C131.845 22.1092 131.948 22.518 131.872 22.9137L128.796 38.7329H139.784C148.155 38.7329 153.832 40.2079 157.138 43.2424C160.508 46.338 161.56 51.2878 160.264 57.9558L154.334 88.456C154.21 89.0901 153.655 89.5479 153.008 89.5479H138.61Z" fill="black"/>
<path d="M130.547 19.9579H116.374C115.081 19.9579 113.97 20.8734 113.723 22.1411L100.977 87.6839C100.824 88.4749 101.031 89.2929 101.544 89.9148C102.057 90.5367 102.821 90.8965 103.628 90.8965H117.801C119.093 90.8965 120.204 89.9809 120.451 88.7132L127.327 53.3474H136.429C140.642 53.3474 141.526 54.2467 141.562 54.2854C141.817 54.5602 142.153 55.8328 141.599 58.6838L135.96 87.6839C135.807 88.4749 136.014 89.2929 136.527 89.9148C137.04 90.5367 137.804 90.8965 138.611 90.8965H153.009C154.301 90.8965 155.412 89.9809 155.659 88.7132L161.589 58.213C162.98 51.0535 161.79 45.6828 158.052 42.249C154.485 38.9748 148.509 37.3834 139.785 37.3834H130.433L133.197 23.1709C133.35 22.3799 133.143 21.5615 132.63 20.94C132.117 20.3181 131.353 19.9579 130.547 19.9579ZM130.547 22.656L127.158 40.0815H139.785C147.729 40.0815 153.209 41.4674 156.225 44.2357C159.241 47.0058 160.144 51.4942 158.939 57.6986L153.009 88.1983H138.611L144.249 59.1987C144.89 55.8998 144.655 53.6496 143.541 52.4498C142.426 51.25 140.055 50.6492 136.429 50.6492H125.102L117.801 88.1983H103.628L116.374 22.656H130.547Z" fill="white"/>
<path d="M182.69 76.5071C188.119 76.5071 192.171 75.5066 194.735 73.5342C197.272 71.5826 199.024 68.2005 199.943 63.4823C200.799 59.0726 200.473 55.9936 198.973 54.332C197.44 52.6349 194.126 51.7742 189.123 51.7742H180.447L175.638 76.5071H182.69ZM154.316 106.974C153.913 106.974 153.531 106.794 153.275 106.483C153.018 106.172 152.914 105.763 152.991 105.367L165.737 39.8246C165.86 39.1909 166.416 38.7332 167.062 38.7332H194.532C203.166 38.7332 209.592 41.076 213.632 45.6975C217.692 50.3428 218.946 56.8368 217.359 64.9987C216.712 68.3237 215.601 71.4117 214.055 74.1764C212.508 76.9442 210.463 79.5052 207.976 81.7896C204.999 84.5741 201.63 86.5932 197.971 87.7813C194.37 88.9537 189.746 89.5481 184.226 89.5481H173.102L169.927 105.882C169.803 106.516 169.248 106.974 168.601 106.974H154.316Z" fill="black"/>
<path d="M181.56 53.1228H189.123C195.161 53.1228 197.259 54.4471 197.972 55.2363C199.155 56.5467 199.378 59.3096 198.617 63.2255C197.763 67.6105 196.18 70.7192 193.912 72.4649C191.589 74.2519 187.813 75.1576 182.69 75.1576H177.276L181.56 53.1228ZM194.532 37.3837H167.062C165.769 37.3837 164.658 38.2992 164.412 39.5669L151.666 105.11C151.512 105.901 151.72 106.719 152.232 107.341C152.745 107.963 153.509 108.322 154.316 108.322H168.601C169.894 108.322 171.005 107.407 171.251 106.139L174.215 90.8968H184.226C189.887 90.8968 194.653 90.2798 198.39 89.0634C202.233 87.8155 205.769 85.6993 208.899 82.774C211.487 80.3947 213.618 77.724 215.233 74.8347C216.849 71.9446 218.01 68.7217 218.683 65.2554C220.355 56.6641 218.997 49.7848 214.648 44.8094C210.341 39.8821 203.573 37.3837 194.532 37.3837ZM174.001 77.8558H182.69C188.45 77.8558 192.74 76.7716 195.559 74.6027C198.378 72.4334 200.28 68.8129 201.268 63.7395C202.213 58.8685 201.783 55.4311 199.976 53.4286C198.167 51.4261 194.55 50.4247 189.123 50.4247H179.335L174.001 77.8558ZM194.532 40.0818C202.796 40.0818 208.825 42.2493 212.615 46.5848C216.404 50.9202 217.545 56.9717 216.033 64.741C215.411 67.9414 214.358 70.8676 212.877 73.5185C211.393 76.1712 209.456 78.5969 207.062 80.7963C204.21 83.4643 201.041 85.3656 197.554 86.4979C194.067 87.6334 189.625 88.1986 184.226 88.1986H171.989L168.601 105.624H154.316L167.062 40.0818H194.532Z" fill="white"/>
</g>
</g>
<defs>
<radialGradient id="paint0_radial_168_498" cx="0" cy="0" r="1" gradientUnits="userSpaceOnUse" gradientTransform="translate(78.2901 26.5909) scale(163.355 163.264)">
<stop stop-color="#AEB2D5"/>
<stop offset="0.3" stop-color="#AEB2D5"/>
<stop offset="0.75" stop-color="#484C89"/>
<stop offset="1" stop-color="#484C89"/>
</radialGradient>
<clipPath id="clip0_168_498">
<rect width="256" height="138" fill="white"/>
</clipPath>
</defs>
</svg>
