<svg width="256" height="256" viewBox="0 0 256 256" fill="none" xmlns="http://www.w3.org/2000/svg">
<path d="M251.159 153.296C249.671 148.787 245.772 145.648 240.729 144.894C238.351 144.539 235.629 144.691 232.406 145.355C226.79 146.514 222.623 146.955 219.582 147.04C231.06 127.661 240.394 105.561 245.767 84.7584C254.455 51.1206 249.812 35.7965 244.387 28.8651C230.029 10.5184 209.08 0.662393 183.808 0.360817C170.326 0.195969 158.491 2.85779 152.317 4.77197C146.569 3.75767 140.388 3.19136 133.903 3.08664C121.745 2.8927 111.004 5.54288 101.826 10.9897C96.7447 9.27136 88.5895 6.84906 79.1718 5.30336C57.022 1.667 39.1699 4.50045 26.112 13.7252C10.3001 24.8942 2.97014 44.2997 4.32578 71.4028C4.75632 80.0079 9.5699 106.19 17.1491 131.02C21.5049 145.292 26.1498 157.143 30.9546 166.249C37.7687 179.16 45.0598 186.764 53.245 189.494C57.8327 191.023 66.1682 192.093 74.9352 184.791C76.0465 186.137 77.5292 187.475 79.4967 188.717C81.9956 190.292 85.0511 191.58 88.1028 192.343C99.1001 195.092 109.401 194.405 118.19 190.551C118.244 192.115 118.286 193.608 118.32 194.898C118.379 196.989 118.437 199.04 118.513 200.958C119.034 213.927 119.917 224.011 122.531 231.066C122.674 231.454 122.867 232.046 123.071 232.673C124.375 236.666 126.556 243.351 132.105 248.587C137.85 254.01 144.8 255.673 151.165 255.673C154.357 255.673 157.403 255.254 160.075 254.682C169.597 252.641 180.412 249.532 188.236 238.392C195.632 227.861 199.228 212 199.879 187.008C199.963 186.301 200.041 185.626 200.115 184.983L200.271 183.663L202.013 183.816L202.462 183.846C212.161 184.288 224.02 182.231 231.304 178.848C237.059 176.178 255.502 166.441 251.159 153.296Z" fill="black"/>
<path d="M234.576 155.851C205.737 161.8 203.754 152.036 203.754 152.036C234.202 106.855 246.931 49.5046 235.948 35.4683C205.98 -2.82022 154.106 15.2879 153.24 15.7572L152.962 15.8077C147.264 14.6246 140.888 13.9206 133.721 13.8033C120.673 13.59 110.774 17.2244 103.263 22.9204C103.263 22.9204 10.7249 -15.2023 15.0294 70.8661C15.9448 89.1759 41.2733 209.41 71.4833 173.093C82.5252 159.813 93.1948 148.585 93.1948 148.585C98.4932 152.105 104.837 153.901 111.487 153.256L112.004 152.818C111.843 154.467 111.917 156.079 112.211 157.988C104.428 166.684 106.715 168.21 91.1574 171.413C75.4144 174.658 84.6624 180.433 90.7007 181.944C98.021 183.774 114.956 186.367 126.398 170.348L125.942 172.176C128.991 174.619 131.132 188.063 130.773 200.251C130.415 212.438 130.175 220.805 132.577 227.341C134.981 233.877 137.375 248.582 157.828 244.2C174.917 240.538 183.773 231.047 185.006 215.216C185.879 203.962 187.859 205.626 187.983 195.563L189.57 190.8C191.4 175.544 189.861 170.622 200.389 172.911L202.949 173.136C210.697 173.488 220.84 171.889 226.793 169.123C239.61 163.174 247.213 153.242 234.574 155.851H234.576Z" fill="#336791"/>
<path d="M108.68 79.0545C106.081 78.6928 103.728 79.0273 102.537 79.9292C101.868 80.4363 101.661 81.0239 101.604 81.4283C101.455 82.4998 102.206 83.6848 102.667 84.2957C103.972 86.0256 105.879 87.2145 107.766 87.4763C108.039 87.5151 108.312 87.5325 108.582 87.5325C111.729 87.5325 114.59 85.0821 114.843 83.2736C115.158 81.0084 111.869 79.4976 108.68 79.0545ZM194.774 79.1262C194.526 77.3507 191.366 76.8446 188.368 77.2615C185.374 77.6785 182.47 79.0302 182.713 80.8096C182.907 82.1934 185.405 84.5556 188.363 84.5556C188.613 84.5556 188.865 84.5391 189.119 84.5032C191.094 84.2298 192.542 82.9759 193.231 82.2535C194.278 81.1519 194.885 79.9243 194.774 79.1262Z" fill="white"/>
<path d="M244.172 155.175C243.072 151.85 239.533 150.781 233.653 151.995C216.193 155.598 209.941 153.102 207.888 151.59C221.459 130.917 232.623 105.925 238.646 82.6091C241.499 71.5643 243.074 61.3068 243.203 52.9461C243.346 43.7699 241.783 37.0266 238.559 32.9073C225.563 16.3013 206.49 7.39362 183.401 7.14925C167.528 6.97083 154.117 11.0329 151.517 12.1752C146.043 10.8137 140.074 9.97786 133.576 9.87119C121.66 9.67822 111.36 12.5311 102.833 18.3463C99.1286 16.9674 89.5557 13.6811 77.8486 11.7951C57.6091 8.53689 41.5257 11.0057 30.0483 19.1366C16.3533 28.8394 10.0309 46.1834 11.2556 70.6857C11.6677 78.9291 16.3649 104.289 23.7773 128.575C33.5344 160.54 44.1409 178.635 55.3002 182.358C56.6064 182.793 58.1123 183.098 59.7734 183.098C63.8442 183.098 68.8352 181.263 74.028 175.02C80.3616 167.422 86.9133 160.009 93.675 152.789C98.0619 155.143 102.881 156.458 107.81 156.59C107.82 156.719 107.833 156.848 107.844 156.976C106.996 157.988 106.165 159.014 105.352 160.055C101.937 164.39 101.226 165.293 90.2326 167.557C87.1053 168.202 78.7998 169.914 78.6777 175.736C78.5458 182.097 88.4958 184.769 89.6294 185.052C93.58 186.041 97.386 186.529 101.016 186.529C109.843 186.529 117.611 183.627 123.819 178.014C123.628 200.691 124.573 223.037 127.296 229.845C129.527 235.419 134.974 249.04 152.183 249.039C154.708 249.039 157.487 248.745 160.544 248.09C178.504 244.24 186.303 236.302 189.32 218.802C190.935 209.449 193.705 187.116 195.008 175.137C197.758 175.995 201.299 176.388 205.126 176.387C213.109 176.387 222.32 174.691 228.096 172.009C234.586 168.996 246.296 161.601 244.172 155.175ZM201.403 74.2251C201.343 77.7616 200.857 80.9723 200.341 84.3236C199.785 87.9279 199.211 91.6545 199.067 96.1781C198.924 100.581 199.474 105.157 200.005 109.584C201.08 118.525 202.182 127.729 197.915 136.811C197.206 135.555 196.574 134.257 196.024 132.924C195.493 131.638 194.341 129.573 192.746 126.714C186.541 115.586 172.01 89.526 179.449 78.8923C181.664 75.7272 187.288 72.4729 201.403 74.2251ZM184.293 14.3105C204.981 14.7672 221.345 22.5063 232.931 37.3117C241.818 48.6678 232.032 100.34 203.705 144.918C203.42 144.556 203.133 144.195 202.845 143.835L202.487 143.387C209.807 131.298 208.376 119.336 207.101 108.732C206.578 104.38 206.083 100.269 206.209 96.4079C206.339 92.3158 206.88 88.8055 207.404 85.4116C208.047 81.2292 208.701 76.9015 208.521 71.7999C208.656 71.2646 208.71 70.6324 208.639 69.8819C208.179 64.9897 202.593 50.3483 191.209 37.0964C184.982 29.8479 175.9 21.7364 163.501 16.2654C168.834 15.1599 176.127 14.1291 184.293 14.3105ZM68.5327 170.451C62.8115 177.33 58.8609 176.011 57.5615 175.579C49.0961 172.755 39.2731 154.862 30.6127 126.489C23.1189 101.938 18.7397 77.2506 18.3926 70.3279C17.2987 48.4341 22.6059 33.1759 34.1676 24.9762C52.9836 11.6331 83.9189 19.6196 96.3494 23.67C96.171 23.8465 95.9848 24.0113 95.8083 24.1907C75.4098 44.7909 75.8937 79.9871 75.9441 82.1388C75.9421 82.9689 76.012 84.1442 76.107 85.7606C76.458 91.6806 77.1116 102.698 75.3661 115.175C73.7448 126.77 77.3191 138.118 85.1708 146.311C85.9766 147.151 86.8235 147.949 87.7084 148.705C84.2137 152.448 76.618 160.725 68.5327 170.451ZM90.3305 141.367C84.0023 134.763 81.1281 125.578 82.444 116.165C84.2864 102.984 83.6066 91.5051 83.2411 85.3379C83.1897 84.4748 83.1441 83.7185 83.1179 83.1221C86.0978 80.4797 99.9072 73.0809 109.755 75.3374C114.249 76.3662 116.987 79.4266 118.126 84.6901C124.018 111.941 118.906 123.3 114.798 132.427C113.951 134.308 113.151 136.085 112.469 137.924L111.939 139.345C110.599 142.939 109.352 146.28 108.579 149.453C101.851 149.434 95.307 146.56 90.3305 141.366V141.367ZM91.3632 178.118C89.3986 177.628 87.6318 176.775 86.5952 176.069C87.4612 175.661 89.002 175.107 91.6745 174.556C104.607 171.894 106.605 170.015 110.967 164.477C111.966 163.206 113.1 161.767 114.67 160.014L114.672 160.012C117.01 157.394 118.079 157.838 120.019 158.643C121.591 159.293 123.122 161.263 123.742 163.431C124.036 164.455 124.366 166.399 123.287 167.911C114.175 180.669 100.898 180.505 91.3632 178.118ZM159.047 241.102C143.226 244.492 137.624 236.42 133.932 227.191C131.549 221.233 130.378 194.367 131.209 164.697C131.22 164.302 131.163 163.921 131.055 163.562C130.958 162.854 130.81 162.153 130.613 161.466C129.377 157.149 126.366 153.538 122.754 152.04C121.319 151.446 118.685 150.355 115.52 151.165C116.195 148.384 117.366 145.243 118.635 141.842L119.167 140.412C119.767 138.799 120.519 137.128 121.314 135.36C125.613 125.81 131.5 112.73 125.111 83.1803C122.717 72.1122 114.725 66.7071 102.61 67.9628C95.3468 68.7143 88.7014 71.6448 85.387 73.3252C84.6743 73.686 84.0226 74.0351 83.4137 74.3745C84.3387 63.2229 87.8335 42.3822 100.907 29.1963C109.139 20.8957 120.101 16.7958 133.458 17.0169C159.775 17.4474 176.652 30.9534 186.176 42.2086C194.384 51.9066 198.828 61.6763 200.602 66.9456C187.263 65.589 178.192 68.2217 173.594 74.7963C163.589 89.0974 179.067 116.854 186.505 130.194C187.869 132.639 189.047 134.752 189.417 135.65C191.839 141.52 194.975 145.44 197.265 148.3C197.967 149.177 198.648 150.027 199.165 150.77C195.126 151.935 187.869 154.626 188.531 168.076C187.997 174.825 184.205 206.424 182.278 217.588C179.735 232.337 174.307 237.83 159.047 241.103V241.102ZM225.087 165.528C220.956 167.445 214.043 168.883 207.477 169.192C200.223 169.532 196.531 168.38 195.662 167.671C195.255 159.289 198.374 158.413 201.676 157.486C202.195 157.341 202.701 157.198 203.19 157.028C203.493 157.275 203.826 157.52 204.19 157.761C210.02 161.608 220.418 162.023 235.099 158.993L235.259 158.961C233.279 160.812 229.891 163.297 225.087 165.528Z" fill="white"/>
</svg>
