<svg width="256" height="256" viewBox="0 0 256 256" fill="none" xmlns="http://www.w3.org/2000/svg">
<path d="M149.431 127.808C149.431 116.332 139.836 107.028 128 107.028C116.164 107.028 106.568 116.332 106.568 127.808C106.568 139.284 116.164 148.588 128 148.588C139.836 148.588 149.431 139.284 149.431 127.808Z" fill="#53C1DE"/>
<path fill-rule="evenodd" clip-rule="evenodd" d="M197.603 89.2296C202.129 71.3982 207.818 38.3318 187.763 27.1213C167.802 15.9596 141.827 37.3474 128.111 50.1854C114.435 37.4754 87.7304 16.179 67.693 27.4251C47.7401 38.6242 53.8931 71.1424 58.5192 89.0856C39.9065 94.2112 8 105.251 8 127.807C8 150.299 39.8733 162.31 58.3758 167.431C53.7326 185.474 47.8877 217.527 67.8662 228.702C87.9784 239.946 114.6 219.156 128.443 206.178C142.247 219.091 167.973 240.017 187.938 228.811C207.965 217.57 202.749 184.947 198.122 166.9C216.058 161.768 248 150.018 248 127.807C248 105.468 215.922 94.3384 197.603 89.2296ZM195.33 157.336C192.292 148.013 188.192 138.098 183.177 127.857C187.964 117.857 191.905 108.07 194.858 98.8072C208.287 102.582 237.748 111.21 237.748 127.807C237.748 144.56 209.477 153.27 195.33 157.336ZM182.8 220.208C167.904 228.568 145.777 208.557 135.582 199.047C142.346 191.875 149.104 183.538 155.7 174.279C167.303 173.282 178.264 171.65 188.205 169.422C191.461 182.187 197.762 211.81 182.8 220.208ZM72.989 220.089C58.0914 211.76 64.9006 183.157 68.3166 169.866C78.1467 171.975 89.0288 173.492 100.659 174.406C107.298 183.466 114.253 191.793 121.261 199.086C112.602 207.206 87.956 228.456 72.989 220.089ZM18.2519 127.807C18.2519 110.992 47.5366 102.426 61.2723 98.6608C64.2761 108.132 68.2156 118.035 72.9698 128.05C68.154 138.213 64.1582 148.273 61.1268 157.856C48.0295 154.221 18.2519 144.633 18.2519 127.807ZM72.8296 36.0283C87.788 27.6333 110.998 48.0786 120.927 57.281C113.955 64.5403 107.065 72.8048 100.482 81.812C89.1952 82.8264 78.39 84.4552 68.4567 86.6376C64.73 72.1657 57.8874 44.4143 72.8296 36.0283ZM163.034 92.6168C170.692 93.5536 178.029 94.8 184.918 96.3248C182.85 102.752 180.272 109.473 177.236 116.362C172.835 108.266 168.111 100.333 163.034 92.6168ZM128.114 64.3848C132.843 69.3518 137.579 74.8984 142.238 80.916C132.788 80.4824 123.322 80.4808 113.872 80.9096C118.535 74.9478 123.312 69.4094 128.114 64.3848ZM78.852 116.355C75.8663 109.49 73.3118 102.739 71.2258 96.22C78.0734 94.7344 85.376 93.52 92.984 92.5984C87.8928 100.298 83.1768 108.228 78.852 116.355ZM93.2024 163.726C85.3432 162.875 77.9301 161.722 71.0845 160.278C73.2035 153.644 75.8142 146.748 78.8637 139.734C83.248 147.946 88.036 155.954 93.2024 163.726ZM128.398 191.932C123.539 186.848 118.692 181.225 113.958 175.177C123.462 175.538 132.985 175.539 142.488 175.128C137.814 181.286 133.095 186.918 128.398 191.932ZM177.334 139.378C180.542 146.467 183.246 153.326 185.394 159.847C178.434 161.387 170.922 162.627 163.006 163.548C168.12 155.686 172.919 147.629 177.334 139.378ZM149.978 164.753C135.441 165.76 120.813 165.749 106.27 164.835C98.0072 153.132 90.6512 140.824 84.3016 128.046C90.6208 115.295 97.9232 103.011 106.147 91.3264C120.7 90.26 135.342 90.2568 149.895 91.3328C158.049 103.017 165.34 115.269 171.806 127.905C165.417 140.65 158.076 152.958 149.978 164.753ZM182.642 35.7328C197.605 44.1003 190.945 73.8181 187.676 86.7408C177.719 84.5128 166.906 82.8552 155.586 81.8248C148.991 72.7203 142.158 64.4414 135.299 57.2759C145.356 47.8753 167.825 27.4471 182.642 35.7328Z" fill="#53C1DE"/>
</svg>
