<svg width="256" height="256" viewBox="0 0 256 256" fill="none" xmlns="http://www.w3.org/2000/svg">
<path d="M64 0C55.2 0 48 7.2 48 16V240C48 248.8 55.2 256 64 256H224C232.8 256 240 248.8 240 240V64L176 0H64Z" fill="#E2E5E7"/>
<path d="M192 64H240L176 0V48C176 56.8 183.2 64 192 64Z" fill="#B0B7BD"/>
<path d="M240 112L192 64H240V112Z" fill="#CAD1D8"/>
<path d="M208 208C208 212.4 204.4 216 200 216H24C19.6 216 16 212.4 16 208V128C16 123.6 19.6 120 24 120H200C204.4 120 208 123.6 208 128V208Z" fill="#F15642"/>
<path d="M49.0641 157.336C50.5361 144.92 69.2721 142.688 78.0961 149.472C82.4481 152.984 77.8481 158.552 74.0001 155.736C69.2721 152.736 58.5201 151.328 57.1761 157.968C55.4481 168.464 83.2801 162.456 82.8241 179.472C82.3761 195.72 58.8401 196.096 50.0081 188.808C47.8961 187.08 47.9601 184.272 49.1201 182.536C50.7761 180.88 52.6321 180.304 54.8081 182.096C60.0561 185.672 73.5521 188.36 74.5121 179.272C73.6881 169.816 47.0801 175.504 49.0641 157.336Z" fill="white"/>
<path d="M132.744 184.711L133.768 185.919C137.984 189.759 132.488 196.031 128.2 191.999L126.032 190.279C122.704 192.575 118.808 193.671 113.624 193.671C102.368 193.671 89.5039 185.919 89.5039 170.183C89.5039 154.447 102.296 146.455 113.624 146.455C125.512 146.455 137.16 154.447 137.16 170.183C137.16 176.263 135.616 180.751 132.744 184.711ZM128.896 170.183C128.896 160.015 120.904 154.839 113.616 154.839C105.752 154.839 98.0079 160.007 98.0079 170.183C98.0079 177.935 104.592 185.287 113.616 185.287C115.912 185.287 118.152 184.711 120.392 184.135L113.104 177.415C109.712 173.319 115.088 167.495 119.368 171.271L126.6 178.495C128.192 176.263 128.896 173.511 128.896 170.183Z" fill="white"/>
<path d="M146.584 151.576C146.584 149.464 148.376 147.672 150.616 147.672C152.664 147.672 154.392 149.472 154.392 151.576V183.624H171.792C178.056 183.624 178.192 192 171.792 192H150.624C148.384 192 146.592 190.408 146.592 188.104V151.576H146.584Z" fill="white"/>
<path d="M200 216H48V224H200C204.4 224 208 220.4 208 216V208C208 212.4 204.4 216 200 216Z" fill="#CAD1D8"/>
</svg>
