<svg width="256" height="156" viewBox="0 0 256 156" fill="none" xmlns="http://www.w3.org/2000/svg">
<mask id="mask0_160_579" style="mask-type:luminance" maskUnits="userSpaceOnUse" x="0" y="0" width="256" height="154">
<path d="M0 0H256V153.164H0V0Z" fill="white"/>
</mask>
<g mask="url(#mask0_160_579)">
<path fill-rule="evenodd" clip-rule="evenodd" d="M128 0C93.8667 0 72.5333 17.0182 64 51.0545C76.8 34.0364 91.7333 27.6545 108.8 31.9091C118.537 34.3342 125.497 41.3825 133.201 49.1778C145.749 61.88 160.275 76.5818 192 76.5818C226.133 76.5818 247.467 59.5636 256 25.5273C243.2 42.5455 228.267 48.9273 211.2 44.6727C201.463 42.2476 194.503 35.1993 186.799 27.404C174.251 14.7018 159.725 0 128 0ZM64 76.5818C29.8667 76.5818 8.53333 93.6 0 127.636C12.8 110.618 27.7333 104.236 44.8 108.491C54.5375 110.921 61.4969 117.964 69.2006 125.76C81.7493 138.462 96.275 153.164 128 153.164C162.133 153.164 183.467 136.145 192 102.109C179.2 119.127 164.267 125.509 147.2 121.255C137.463 118.829 130.503 111.781 122.799 103.986C110.251 91.2836 95.725 76.5818 64 76.5818Z" fill="#38BDF8"/>
</g>
</svg>
