<svg width="314" height="314" viewBox="0 0 314 314" fill="none" xmlns="http://www.w3.org/2000/svg">
<path d="M234.306 285.405L225.081 271.565L232.67 266.507L233.562 267.845L227.551 271.852L230.612 276.445L235.885 272.931L236.777 274.269L231.504 277.783L234.992 283.015L241.482 278.689L242.374 280.027L234.306 285.405ZM248.247 275.995C248.019 275.24 247.798 274.47 247.584 273.683C247.359 272.883 247.151 272.08 246.961 271.272C246.761 270.451 246.577 269.627 246.411 268.798C246.245 267.969 246.107 267.147 245.997 266.334L237.581 263.231L239.18 261.851L246.155 264.644L244.576 257.194L246.193 255.798L247.86 264.599C248.87 264.912 249.888 265.259 250.915 265.641C251.943 266 252.981 266.394 254.027 266.822C255.073 267.251 256.138 267.726 257.223 268.248L255.624 269.628C254.979 269.297 254.212 268.935 253.322 268.54C252.434 268.123 251.51 267.726 250.551 267.349C249.581 266.96 248.661 266.666 247.791 266.466C247.87 267.243 248.012 268.093 248.216 269.016C248.433 269.928 248.675 270.87 248.944 271.843C249.225 272.805 249.508 273.745 249.792 274.662L248.247 275.995ZM263.235 262.712L251.074 251.72C251.28 251.325 251.537 250.921 251.845 250.509C252.141 250.086 252.449 249.686 252.77 249.307C253.089 248.906 253.378 248.562 253.635 248.278C254.504 247.316 255.384 246.677 256.274 246.36C257.175 246.031 258.045 245.976 258.883 246.194C259.72 246.39 260.488 246.804 261.189 247.437C262.411 248.542 263.046 249.784 263.093 251.164C263.151 252.532 262.509 253.958 261.168 255.441L259.736 257.026L264.49 261.323L263.235 262.712ZM258.579 255.98L259.898 254.52C260.531 253.82 260.962 253.152 261.19 252.518C261.419 251.883 261.433 251.271 261.233 250.68C261.034 250.09 260.613 249.505 259.972 248.926C259.153 248.186 258.314 247.837 257.456 247.881C256.585 247.913 255.737 248.387 254.911 249.301C254.557 249.692 254.23 250.066 253.931 250.421C253.63 250.753 253.417 251.013 253.29 251.201L258.579 255.98ZM275.839 248.283L262.215 238.743L263.289 237.21L275.596 245.827L280.111 239.378L281.428 240.301L275.839 248.283ZM288.521 229.338C287.982 230.356 287.235 231.119 286.279 231.627C285.33 232.121 284.17 232.295 282.799 232.15C281.428 232.004 279.852 231.461 278.069 230.518C276.287 229.576 274.946 228.587 274.046 227.55C273.154 226.499 272.644 225.443 272.518 224.381C272.399 223.305 272.613 222.25 273.159 221.218C273.697 220.199 274.444 219.436 275.401 218.928C276.357 218.42 277.52 218.239 278.891 218.384C280.27 218.515 281.85 219.052 283.632 219.994C285.415 220.936 286.752 221.933 287.644 222.984C288.537 224.034 289.039 225.105 289.15 226.196C289.269 227.272 289.059 228.319 288.521 229.338ZM287.044 228.639C287.448 227.875 287.558 227.101 287.376 226.316C287.201 225.518 286.728 224.734 285.958 223.965C285.182 223.175 284.107 222.417 282.735 221.692C281.349 220.959 280.118 220.498 279.041 220.309C277.958 220.099 277.044 220.149 276.3 220.462C275.549 220.753 274.972 221.28 274.568 222.044C274.179 222.779 274.08 223.532 274.27 224.302C274.453 225.051 274.934 225.802 275.711 226.557C276.489 227.312 277.577 228.06 278.978 228.8C280.35 229.525 281.574 230 282.65 230.225C283.711 230.442 284.61 230.419 285.346 230.157C286.089 229.88 286.655 229.374 287.044 228.639ZM294.333 217.167L278.999 211.374C279.019 211.005 279.088 210.596 279.207 210.145C279.311 209.688 279.441 209.232 279.595 208.777C279.741 208.302 279.881 207.885 280.017 207.526C280.724 205.655 281.664 204.411 282.838 203.794C284.011 203.177 285.392 203.168 286.978 203.767C287.951 204.135 288.7 204.734 289.224 205.565C289.733 206.39 290.039 207.301 290.141 208.297C290.775 208.16 291.53 208.018 292.406 207.87C293.289 207.708 294.224 207.565 295.211 207.442C296.189 207.298 297.16 207.195 298.125 207.131L297.404 209.04C296.43 209.082 295.462 209.153 294.501 209.252C293.546 209.336 292.663 209.455 291.852 209.611C291.025 209.76 290.342 209.938 289.803 210.145C289.778 210.255 289.728 210.433 289.652 210.678C289.562 210.918 289.503 211.075 289.474 211.15L288.762 213.036L295.003 215.393L294.333 217.167ZM287.303 212.484L287.879 210.958C288.19 210.134 288.39 209.38 288.477 208.695C288.55 208.004 288.423 207.392 288.094 206.857C287.751 206.317 287.115 205.872 286.187 205.521C285.289 205.182 284.551 205.099 283.972 205.274C283.383 205.428 282.905 205.743 282.537 206.22C282.169 206.697 281.869 207.242 281.637 207.855C281.456 208.334 281.294 208.786 281.15 209.211C280.998 209.615 280.908 209.898 280.881 210.059L287.303 212.484ZM301.027 198.501L284.853 194.624L286.98 185.755L288.543 186.13L286.859 193.155L292.227 194.442L293.704 188.28L295.268 188.655L293.791 194.817L299.905 196.282L301.724 188.697L303.288 189.072L301.027 198.501ZM302.043 157.662C302.052 158.414 301.884 159.072 301.539 159.637C301.194 160.185 300.735 160.607 300.162 160.902C299.574 161.197 298.936 161.349 298.248 161.357C297.56 161.366 296.926 161.23 296.347 160.949C295.767 160.668 295.298 160.257 294.94 159.718C294.565 159.162 294.373 158.509 294.363 157.757C294.354 157.005 294.53 156.355 294.891 155.806C295.237 155.258 295.696 154.836 296.268 154.541C296.84 154.23 297.47 154.07 298.158 154.062C298.846 154.053 299.488 154.198 300.084 154.494C300.663 154.775 301.132 155.185 301.491 155.725C301.85 156.265 302.034 156.91 302.043 157.662ZM303.328 124.534L287.265 128.845L284.901 120.037L286.454 119.62L288.327 126.597L293.658 125.166L292.015 119.047L293.568 118.63L295.211 124.749L301.284 123.119L299.262 115.586L300.815 115.169L303.328 124.534ZM298.872 108.315C298.085 108.291 297.284 108.256 296.469 108.209C295.64 108.167 294.812 108.108 293.985 108.031C293.144 107.96 292.304 107.871 291.465 107.765C290.627 107.658 289.804 107.528 288.998 107.373L283.377 114.364L282.578 112.409L287.446 106.685L279.881 105.811L279.072 103.834L287.946 105.055C288.564 104.198 289.217 103.343 289.906 102.491C290.574 101.63 291.277 100.772 292.017 99.9167C292.756 99.0614 293.546 98.2027 294.386 97.3407L295.185 99.2956C294.666 99.8017 294.078 100.414 293.421 101.132C292.743 101.841 292.072 102.59 291.41 103.38C290.732 104.175 290.16 104.954 289.694 105.715C290.456 105.887 291.307 106.023 292.246 106.123C293.18 106.208 294.15 106.278 295.158 106.333C296.16 106.373 297.14 106.404 298.1 106.427L298.872 108.315ZM291.048 89.8805L276.77 97.9328C276.46 97.6115 276.159 97.2397 275.865 96.8173C275.558 96.4028 275.276 95.9835 275.018 95.5593C274.739 95.129 274.505 94.7467 274.316 94.4122C273.679 93.2834 273.352 92.2465 273.333 91.3018C273.307 90.3431 273.53 89.5009 274.002 88.7752C274.453 88.0434 275.09 87.4457 275.912 86.982C277.347 86.1724 278.727 85.9639 280.05 86.3564C281.366 86.7349 282.515 87.7952 283.497 89.5372L284.547 91.3978L290.128 88.2499L291.048 89.8805ZM283.188 92.1641L282.221 90.4499C281.757 89.6276 281.261 89.0076 280.731 88.5899C280.202 88.1721 279.625 87.9644 279.002 87.9669C278.379 87.9693 277.691 88.1828 276.939 88.6072C275.977 89.1495 275.381 89.8348 275.15 90.6631C274.905 91.4992 275.085 92.4538 275.69 93.5269C275.95 93.9868 276.2 94.4149 276.442 94.8112C276.662 95.2014 276.841 95.4862 276.979 95.6656L283.188 92.1641ZM281.354 73.3537L267.994 83.2595L266.879 81.7557L278.948 72.8076L274.259 66.4841L275.551 65.5264L281.354 73.3537ZM267.398 55.3255C268.193 56.159 268.68 57.1097 268.859 58.1776C269.027 59.234 268.824 60.3893 268.251 61.6433C267.679 62.8974 266.663 64.2202 265.205 65.6119C263.746 67.0036 262.382 67.9618 261.114 68.4866C259.834 68.9998 258.671 69.1479 257.624 68.9309C256.565 68.7024 255.633 68.1656 254.827 67.3205C254.031 66.4871 253.544 65.5363 253.366 64.4684C253.187 63.4004 253.384 62.2394 253.957 60.9853C254.518 59.7197 255.528 58.3911 256.987 56.9994C258.446 55.6077 259.815 54.6552 261.094 54.1421C262.374 53.6289 263.548 53.4923 264.618 53.7325C265.676 53.961 266.603 54.492 267.398 55.3255ZM266.267 56.5042C265.671 55.8791 264.972 55.5288 264.17 55.4534C263.357 55.3665 262.464 55.5662 261.491 56.0526C260.495 56.5385 259.435 57.3171 258.312 58.3885C257.178 59.4709 256.35 60.4926 255.83 61.4537C255.287 62.4142 255.045 63.2969 255.106 64.1018C255.144 64.9062 255.461 65.6209 256.057 66.246C256.631 66.848 257.314 67.1809 258.105 67.2447C258.873 67.308 259.738 67.0906 260.7 66.5926C261.662 66.0946 262.717 65.2989 263.863 64.2054C264.985 63.1341 265.824 62.1239 266.378 61.175C266.921 60.2371 267.184 59.3775 267.169 58.5963C267.142 57.8035 266.841 57.1061 266.267 56.5042ZM257.699 45.9521L247.328 58.6463C246.984 58.5103 246.618 58.3141 246.228 58.0577C245.828 57.8137 245.438 57.5461 245.056 57.2548C244.651 56.9657 244.3 56.6997 244.003 56.4568C242.454 55.1914 241.574 53.9042 241.363 52.5951C241.151 51.286 241.582 49.9747 242.655 48.6613C243.313 47.8559 244.119 47.337 245.074 47.1044C246.018 46.8842 246.979 46.884 247.956 47.104C248.028 46.46 248.133 45.6989 248.272 44.8207C248.399 43.9324 248.561 43.0007 248.758 42.0257C248.933 41.0529 249.144 40.0992 249.391 39.1647L250.971 40.4554C250.701 41.3922 250.46 42.3318 250.248 43.2742C250.024 44.2065 249.856 45.0819 249.745 45.9004C249.624 46.7313 249.576 47.4355 249.6 48.013C249.697 48.0714 249.849 48.1755 250.058 48.325C250.256 48.487 250.386 48.5933 250.448 48.6439L252.009 49.9194L256.231 44.7525L257.699 45.9521ZM251.022 51.1275L249.758 50.0949C249.077 49.5382 248.425 49.1092 247.804 48.8079C247.172 48.5191 246.551 48.4452 245.939 48.5864C245.318 48.7399 244.694 49.2008 244.066 49.969C243.459 50.7124 243.146 51.3864 243.127 51.991C243.086 52.5978 243.232 53.1516 243.567 53.6523C243.902 54.153 244.323 54.6109 244.831 55.0259C245.228 55.3499 245.604 55.6473 245.962 55.9184C246.296 56.1917 246.535 56.3666 246.68 56.443L251.022 51.1275ZM242.135 33.6626L233.289 47.7474L225.566 42.8971L226.421 41.5353L232.539 45.3773L235.474 40.7027L230.109 37.333L230.964 35.9713L236.33 39.341L239.674 34.016L233.068 29.8677L233.923 28.506L242.135 33.6626ZM203.775 19.6611C204.491 19.8903 205.063 20.2579 205.489 20.7638C205.899 21.2649 206.154 21.8336 206.253 22.47C206.347 23.1216 206.289 23.775 206.079 24.4303C205.869 25.0855 205.54 25.6436 205.09 26.1044C204.64 26.5652 204.102 26.8803 203.477 27.0497C202.831 27.2295 202.151 27.2048 201.434 26.9756C200.718 26.7464 200.157 26.3736 199.751 25.8573C199.34 25.3562 199.085 24.7875 198.987 24.1511C198.873 23.5099 198.921 22.8616 199.13 22.2064C199.34 21.5511 199.68 20.9879 200.15 20.5167C200.6 20.0559 201.137 19.7408 201.763 19.5714C202.388 19.4019 203.059 19.4318 203.775 19.6611ZM172.755 7.96616L171.756 24.5681L162.653 24.0205L162.749 22.4154L169.96 22.8492L170.292 17.3392L163.967 16.9587L164.064 15.3536L170.388 15.7341L170.766 9.4574L162.98 8.98899L163.077 7.38389L172.755 7.96616ZM155.96 7.05328C155.686 7.79204 155.397 8.5398 155.092 9.29654C154.788 10.0693 154.468 10.835 154.131 11.5938C153.795 12.3685 153.443 13.1363 153.074 13.897C152.706 14.6578 152.319 15.3957 151.916 16.1106L156.746 23.6688L154.638 23.8021L150.768 17.3615L147.525 24.2519L145.393 24.3867L149.383 16.3669C148.767 15.5081 148.166 14.6162 147.578 13.6915C146.976 12.7837 146.387 11.843 145.813 10.8693C145.238 9.89559 144.676 8.873 144.128 7.80149L146.236 7.66821C146.549 8.3217 146.942 9.07445 147.412 9.92644C147.868 10.7954 148.364 11.6698 148.901 12.5497C149.438 13.4456 149.993 14.2361 150.566 14.9214C150.973 14.2544 151.373 13.4916 151.768 12.633C152.146 11.7754 152.523 10.8778 152.896 9.9404C153.254 9.00396 153.596 8.0845 153.924 7.18203L155.96 7.05328ZM135.991 8.58189L139.05 24.686C138.646 24.8766 138.197 25.0433 137.703 25.186C137.212 25.3444 136.725 25.4778 136.24 25.586C135.743 25.713 135.306 25.8123 134.929 25.884C133.656 26.1258 132.569 26.1043 131.668 25.8194C130.751 25.5375 130.024 25.0566 129.488 24.3768C128.939 23.7156 128.577 22.9213 128.4 21.9939C128.093 20.3748 128.337 19.0012 129.132 17.8729C129.912 16.7477 131.284 15.9984 133.249 15.6252L135.348 15.2267L134.152 8.93121L135.991 8.58189ZM135.639 16.7593L133.705 17.1265C132.778 17.3026 132.032 17.5747 131.466 17.9426C130.901 18.3106 130.52 18.7901 130.323 19.3813C130.125 19.9725 130.108 20.6925 130.269 21.5413C130.475 22.6259 130.933 23.4101 131.644 23.894C132.358 24.3936 133.32 24.5284 134.53 24.2986C135.049 24.2 135.535 24.0996 135.987 23.9973C136.428 23.9137 136.755 23.8353 136.969 23.7621L135.639 16.7593ZM117.232 12.4782L122.356 28.3013L120.575 28.878L115.946 14.5847L108.457 17.0099L107.962 15.4801L117.232 12.4782ZM95.6966 19.9634C96.7394 19.4737 97.7955 19.3136 98.8649 19.483C99.9199 19.6592 100.951 20.2178 101.959 21.1588C102.966 22.0997 103.899 23.4826 104.756 25.3073C105.613 27.1321 106.089 28.7292 106.184 30.0987C106.265 31.4749 106.036 32.6252 105.498 33.5496C104.945 34.4809 104.14 35.1947 103.083 35.6912C102.04 36.181 100.984 36.3411 99.9149 36.1717C98.8454 36.0022 97.8069 35.447 96.7993 34.5061C95.7773 33.572 94.8377 32.1925 93.9807 30.3677C93.1237 28.5429 92.6549 26.9424 92.5742 25.5662C92.4935 24.19 92.7367 23.0328 93.3037 22.0948C93.8563 21.1636 94.6539 20.4531 95.6966 19.9634ZM96.4556 21.41C95.6735 21.7773 95.1196 22.3291 94.7937 23.0655C94.4533 23.8087 94.3594 24.719 94.5118 25.7963C94.6566 26.895 95.0589 28.1467 95.7186 29.5515C96.3852 30.9708 97.0916 32.0797 97.8378 32.8782C98.5764 33.698 99.3369 34.207 100.119 34.4052C100.894 34.6246 101.673 34.5507 102.455 34.1834C103.208 33.8298 103.74 33.2881 104.051 32.5586C104.355 31.8503 104.423 30.9608 104.256 29.8902C104.09 28.8197 103.669 27.5675 102.996 26.1337C102.336 24.7289 101.644 23.6133 100.92 22.7866C100.203 21.9745 99.4715 21.4519 98.7256 21.2189C97.9653 20.9926 97.2086 21.0563 96.4556 21.41ZM83.7305 26.1891L92.4932 40.0424C92.2556 40.3252 91.9536 40.6109 91.5871 40.8995C91.2292 41.2017 90.8516 41.4878 90.4545 41.7579C90.0525 42.0501 89.6892 42.2988 89.3646 42.5041C87.6744 43.5733 86.1749 44.0011 84.8661 43.7877C83.5573 43.5743 82.4496 42.7509 81.543 41.3176C80.987 40.4387 80.7496 39.5097 80.8308 38.5306C80.9206 37.5651 81.2243 36.6536 81.7421 35.796C81.1538 35.5244 80.4651 35.1838 79.6759 34.7743C78.8732 34.3732 78.0406 33.9249 77.178 33.4292C76.3105 32.9557 75.4725 32.4539 74.664 31.924L76.3881 30.8335C77.1916 31.3855 78.0068 31.9111 78.8338 32.4103C79.6472 32.9181 80.4247 33.354 81.1661 33.7181C81.9161 34.0956 82.5688 34.3643 83.1243 34.5241C83.2104 34.4507 83.3573 34.3388 83.5651 34.1885C83.7815 34.0516 83.9234 33.9618 83.991 33.919L85.6948 32.8414L82.1281 27.2027L83.7305 26.1891ZM86.5288 34.1597L85.1495 35.0322C84.4058 35.5026 83.7928 35.985 83.3104 36.4795C82.8365 36.9875 82.5699 37.5537 82.5105 38.1781C82.4597 38.8161 82.6994 39.5543 83.2297 40.3926C83.7429 41.204 84.2833 41.7141 84.8509 41.923C85.4136 42.154 85.9853 42.1899 86.5662 42.0308C87.1471 41.8716 87.7147 41.6167 88.2691 41.266C88.7018 40.9923 89.1032 40.7289 89.4732 40.4759C89.8383 40.245 90.0799 40.0732 90.1981 39.9607L86.5288 34.1597ZM67.1494 37.0679L77.7135 49.914L70.6694 55.7067L69.6481 54.4648L75.2277 49.8763L71.7216 45.6128L66.8278 49.6372L65.8065 48.3952L70.7003 44.3708L66.7063 39.5141L60.6818 44.4684L59.6605 43.2265L67.1494 37.0679ZM41.6859 69.0063C42.1318 68.4008 42.6625 67.9769 43.2781 67.7347C43.8841 67.5054 44.5044 67.4456 45.139 67.5553C45.7864 67.6744 46.3871 67.938 46.9411 68.346C47.4951 68.754 47.9186 69.2447 48.2116 69.8182C48.5046 70.3916 48.6316 71.0017 48.5924 71.6485C48.5567 72.3176 48.3158 72.955 47.8699 73.5605C47.4239 74.166 46.8915 74.5787 46.2726 74.7985C45.6666 75.0278 45.0463 75.0876 44.4117 74.9779C43.7676 74.8811 43.1686 74.6288 42.6146 74.2208C42.0607 73.8128 41.6355 73.3109 41.339 72.7151C41.046 72.1416 40.9191 71.5315 40.9583 70.8847C40.9974 70.2379 41.24 69.6118 41.6859 69.0063ZM20.6895 94.6635L36.1077 100.901L32.6876 109.355L31.1969 108.752L33.906 102.055L28.7889 99.9852L26.4128 105.859L24.9222 105.256L27.2982 99.3822L21.4691 97.0241L18.544 104.255L17.0534 103.652L20.6895 94.6635ZM14.474 110.292C15.0881 110.786 15.7058 111.297 16.3272 111.826C16.964 112.359 17.589 112.905 18.2022 113.464C18.8308 114.028 19.4476 114.605 20.0526 115.196C20.6576 115.786 21.2353 116.386 21.7856 116.995L30.4842 114.805L29.9435 116.847L22.6091 118.48L28.1187 123.737L27.5719 125.802L21.2272 119.479C20.2177 119.791 19.1813 120.08 18.1181 120.344C17.0663 120.628 15.9877 120.889 14.8822 121.126C13.7767 121.363 12.6289 121.572 11.4388 121.753L11.9795 119.712C12.6988 119.621 13.537 119.487 14.4941 119.31C15.4627 119.153 16.4492 118.959 17.4537 118.728C18.4736 118.502 19.3992 118.226 20.2304 117.899C19.7264 117.303 19.1296 116.681 18.44 116.035C17.7464 115.404 17.014 114.764 16.243 114.112C15.4679 113.477 14.7042 112.861 13.9518 112.264L14.474 110.292ZM9.60542 129.717L25.851 131.903C25.9044 132.347 25.9207 132.825 25.9 133.339C25.8952 133.855 25.8676 134.36 25.8173 134.853C25.7807 135.365 25.7368 135.811 25.6856 136.192C25.5128 137.476 25.1489 138.501 24.5939 139.266C24.0369 140.046 23.3511 140.584 22.5366 140.878C21.7358 141.19 20.8677 141.283 19.9321 141.157C18.2988 140.937 17.0726 140.272 16.2535 139.16C15.4322 138.065 15.1549 136.526 15.4217 134.544L15.7065 132.427L9.35577 131.573L9.60542 129.717ZM17.2526 132.635L16.9901 134.586C16.8642 135.521 16.8865 136.315 17.057 136.968C17.2275 137.621 17.5621 138.134 18.0607 138.508C18.5593 138.881 19.2367 139.126 20.093 139.241C21.1871 139.388 22.076 139.201 22.7597 138.68C23.4592 138.16 23.8911 137.29 24.0554 136.069C24.1258 135.546 24.184 135.053 24.2301 134.591C24.2898 134.147 24.3188 133.812 24.3169 133.586L17.2526 132.635ZM7.36981 148.747L24.0009 148.918L23.9816 150.79L8.95842 150.635L8.87727 158.507L7.26935 158.49L7.36981 148.747ZM7.60695 171.545C7.47656 170.401 7.6627 169.349 8.16538 168.39C8.66986 167.447 9.52902 166.648 10.7428 165.995C11.9567 165.341 13.5651 164.9 15.5681 164.672C17.5712 164.444 19.2367 164.504 20.5646 164.852C21.8943 165.215 22.911 165.8 23.6147 166.606C24.3202 167.427 24.7391 168.418 24.8713 169.578C25.0017 170.723 24.8155 171.775 24.3129 172.734C23.8102 173.693 22.9519 174.499 21.7381 175.153C20.5261 175.822 18.9186 176.271 16.9155 176.499C14.9125 176.728 13.2461 176.66 11.9164 176.296C10.5867 175.932 9.56813 175.332 8.86081 174.494C8.1553 173.673 7.73735 172.69 7.60695 171.545ZM9.22032 171.289C9.31811 172.147 9.66372 172.849 10.2571 173.393C10.8524 173.953 11.6848 174.334 12.7543 174.534C13.8416 174.748 15.1562 174.767 16.6982 174.592C18.2561 174.414 19.5327 174.1 20.528 173.648C21.541 173.211 22.2666 172.653 22.7046 171.975C23.1604 171.311 23.3394 170.55 23.2416 169.692C23.1475 168.865 22.8046 168.187 22.2129 167.659C21.639 167.145 20.8182 166.795 19.7505 166.611C18.6828 166.427 17.362 166.424 15.7882 166.603C14.2461 166.779 12.9677 167.078 11.9529 167.499C10.954 167.919 10.2249 168.445 9.76545 169.077C9.30786 169.725 9.12614 170.462 9.22032 171.289ZM9.67751 184.875L25.6058 181.003C25.7978 181.319 25.9718 181.696 26.1281 182.136C26.2998 182.572 26.4502 183.021 26.5791 183.484C26.7273 183.958 26.8468 184.382 26.9375 184.755C27.4098 186.698 27.3356 188.256 26.7148 189.428C26.094 190.599 24.9596 191.386 23.3115 191.786C22.301 192.032 21.3448 191.96 20.4432 191.569C19.5571 191.176 18.7906 190.596 18.1437 189.831C17.6982 190.302 17.1552 190.846 16.5148 191.462C15.8781 192.094 15.187 192.74 14.4414 193.399C13.7152 194.069 12.9718 194.703 12.2112 195.299L11.7294 193.317C12.5094 192.732 13.2681 192.128 14.0056 191.504C14.7469 190.896 15.4086 190.299 15.9907 189.713C16.5883 189.123 17.0516 188.59 17.3807 188.115C17.3387 188.01 17.2797 187.835 17.2037 187.59C17.1432 187.341 17.1036 187.178 17.0847 187.1L16.6085 185.141L10.1253 186.717L9.67751 184.875ZM18.1244 184.773L18.5099 186.359C18.7177 187.214 18.9787 187.949 19.2929 188.564C19.6226 189.176 20.0738 189.609 20.6465 189.865C21.2347 190.117 22.0107 190.126 22.9747 189.892C23.9075 189.665 24.5637 189.317 24.9432 188.846C25.342 188.386 25.559 187.856 25.5939 187.255C25.6289 186.654 25.5689 186.034 25.414 185.397C25.2931 184.899 25.172 184.435 25.0506 184.003C24.9486 183.583 24.8631 183.3 24.7942 183.152L18.1244 184.773ZM14.6857 204.063L30.2259 198.137L33.4757 206.658L31.9733 207.231L29.3991 200.481L24.2414 202.448L26.4992 208.368L24.9967 208.941L22.739 203.021L16.8637 205.262L19.6432 212.55L18.1407 213.123L14.6857 204.063ZM36.8923 238.337C36.4588 237.723 36.2245 237.085 36.1893 236.425C36.1633 235.777 36.3027 235.17 36.6073 234.602C36.925 234.026 37.365 233.539 37.9272 233.143C38.4894 232.746 39.0888 232.499 39.7255 232.403C40.3622 232.306 40.9811 232.378 41.5824 232.62C42.2059 232.866 42.7344 233.296 43.1679 233.91C43.6014 234.524 43.8245 235.16 43.8374 235.817C43.8634 236.464 43.724 237.072 43.4194 237.639C43.1239 238.219 42.6951 238.708 42.133 239.104C41.5708 239.501 40.9602 239.746 40.3012 239.839C39.6645 239.935 39.0456 239.863 38.4443 239.621C37.8431 239.38 37.3258 238.952 36.8923 238.337ZM54.5797 266.383L65.4031 253.754L72.3278 259.689L71.2814 260.91L65.7963 256.209L62.2041 260.4L67.0149 264.523L65.9685 265.744L61.1577 261.621L57.0657 266.395L62.9882 271.471L61.9417 272.692L54.5797 266.383ZM67.4139 277.253C68.0781 276.829 68.7599 276.407 69.4596 275.988C70.1681 275.555 70.8855 275.137 71.6118 274.735C72.347 274.32 73.0911 273.92 73.8441 273.536C74.5971 273.151 75.3502 272.796 76.1034 272.469L76.8103 263.527L78.5718 264.692L77.7731 272.164L84.5168 268.625L86.2982 269.804L78.2782 273.793C78.2509 274.849 78.1926 275.923 78.1033 277.015C78.0362 278.103 77.9381 279.208 77.809 280.331C77.6799 281.454 77.5109 282.609 77.3022 283.794L75.5407 282.629C75.6846 281.919 75.8258 281.082 75.9644 280.118C76.1251 279.15 76.2569 278.153 76.3597 277.128C76.4714 276.089 76.5057 275.124 76.4625 274.232C75.7358 274.519 74.9561 274.885 74.1234 275.332C73.3041 275.788 72.4627 276.277 71.5992 276.799C70.7491 277.33 69.9211 277.857 69.1154 278.379L67.4139 277.253ZM84.2628 288.078L91.5242 273.382C91.9611 273.473 92.4197 273.611 92.9 273.794C93.3874 273.964 93.8569 274.151 94.3087 274.357C94.7819 274.555 95.1906 274.739 95.5349 274.909C96.6968 275.483 97.5515 276.155 98.0989 276.926C98.6607 277.703 98.9508 278.524 98.9692 279.39C99.0091 280.249 98.8199 281.101 98.4017 281.947C97.6717 283.425 96.6493 284.374 95.3347 284.795C94.0344 285.224 92.4878 284.995 90.6947 284.109L88.7797 283.163L85.9411 288.908L84.2628 288.078ZM89.4708 281.764L91.2352 282.636C92.0815 283.054 92.8411 283.287 93.5139 283.333C94.1867 283.38 94.7799 283.227 95.2934 282.874C95.807 282.521 96.2551 281.957 96.6378 281.183C97.1269 280.193 97.2336 279.291 96.9578 278.476C96.6891 277.648 96.0025 276.96 94.898 276.415C94.4246 276.181 93.9764 275.968 93.5533 275.777C93.1517 275.579 92.8434 275.444 92.6284 275.374L89.4708 281.764ZM101.583 296.271L107.029 280.556L108.797 281.169L103.878 295.365L111.316 297.943L110.789 299.462L101.583 296.271ZM123.278 303.277C122.151 303.039 121.211 302.53 120.46 301.75C119.725 300.974 119.239 299.906 119.002 298.548C118.766 297.19 118.856 295.525 119.272 293.552C119.689 291.58 120.272 290.018 121.022 288.869C121.787 287.722 122.663 286.942 123.65 286.529C124.652 286.119 125.725 286.035 126.867 286.276C127.995 286.514 128.934 287.023 129.685 287.803C130.436 288.583 130.93 289.652 131.166 291.01C131.418 292.372 131.336 294.039 130.92 296.011C130.503 297.984 129.912 299.543 129.147 300.69C128.381 301.837 127.49 302.613 126.472 303.02C125.47 303.43 124.405 303.515 123.278 303.277ZM123.544 301.666C124.39 301.844 125.164 301.738 125.868 301.347C126.588 300.959 127.212 300.29 127.74 299.338C128.287 298.374 128.72 297.133 129.041 295.615C129.365 294.081 129.47 292.77 129.356 291.683C129.261 290.584 128.961 289.719 128.457 289.089C127.971 288.447 127.305 288.037 126.46 287.858C125.646 287.686 124.895 287.797 124.206 288.192C123.537 288.574 122.946 289.242 122.434 290.197C121.921 291.152 121.502 292.404 121.174 293.954C120.854 295.472 120.733 296.78 120.812 297.876C120.895 298.956 121.164 299.814 121.618 300.45C122.088 301.088 122.73 301.494 123.544 301.666ZM136.577 305.526L137.944 289.191C138.304 289.108 138.717 289.063 139.184 289.053C139.652 289.028 140.125 289.028 140.605 289.052C141.102 289.061 141.542 289.082 141.924 289.114C143.917 289.281 145.372 289.844 146.287 290.804C147.202 291.763 147.589 293.088 147.447 294.778C147.361 295.815 146.99 296.699 146.334 297.431C145.68 298.147 144.888 298.691 143.958 299.062C144.263 299.634 144.607 300.321 144.99 301.124C145.388 301.928 145.782 302.787 146.171 303.703C146.577 304.604 146.943 305.51 147.268 306.42L145.235 306.25C144.927 305.325 144.594 304.414 144.236 303.517C143.893 302.621 143.536 301.805 143.164 301.067C142.794 300.314 142.435 299.706 142.088 299.243C141.975 299.25 141.791 299.25 141.534 299.245C141.279 299.224 141.112 299.21 141.032 299.203L139.023 299.035L138.467 305.684L136.577 305.526ZM139.153 297.48L140.779 297.616C141.656 297.69 142.436 297.675 143.119 297.571C143.804 297.452 144.358 297.161 144.782 296.699C145.207 296.221 145.461 295.487 145.544 294.499C145.624 293.542 145.501 292.809 145.174 292.3C144.865 291.777 144.43 291.403 143.871 291.18C143.312 290.956 142.705 290.817 142.051 290.763C141.541 290.72 141.062 290.688 140.614 290.666C140.184 290.63 139.888 290.622 139.725 290.64L139.153 297.48ZM156.365 306.853L155.706 290.234L164.819 289.873L164.882 291.479L157.664 291.766L157.883 297.281L164.214 297.03L164.277 298.637L157.946 298.888L158.195 305.171L165.989 304.862L166.053 306.469L156.365 306.853ZM196.046 296.842C195.322 297.044 194.642 297.051 194.008 296.863C193.39 296.67 192.864 296.335 192.432 295.858C191.996 295.365 191.685 294.787 191.5 294.124C191.315 293.462 191.284 292.814 191.406 292.182C191.529 291.55 191.805 290.991 192.234 290.506C192.675 290.001 193.257 289.647 193.981 289.445C194.706 289.243 195.379 289.246 196.002 289.454C196.621 289.647 197.146 289.982 197.578 290.459C198.026 290.932 198.342 291.5 198.527 292.163C198.712 292.826 198.738 293.483 198.604 294.135C198.482 294.767 198.206 295.326 197.776 295.811C197.347 296.296 196.77 296.64 196.046 296.842Z" fill="white"/>
<path d="M76.602 171V142.6H83.322C85.7753 142.6 87.9086 143.16 89.722 144.28C91.562 145.373 92.9753 146.987 93.962 149.12C94.9753 151.227 95.482 153.8 95.482 156.84C95.482 159.88 94.9753 162.453 93.962 164.56C92.9753 166.667 91.562 168.267 89.722 169.36C87.9086 170.453 85.7753 171 83.322 171H76.602ZM80.042 167.64H83.122C85.8953 167.64 88.042 166.747 89.562 164.96C91.1086 163.147 91.882 160.44 91.882 156.84C91.882 153.24 91.1086 150.533 89.562 148.72C88.042 146.88 85.8953 145.96 83.122 145.96H80.042V167.64ZM100.186 171V167.64H107.266V145.96H100.186V142.6H117.786V145.96H110.706V167.64H117.786V171H100.186ZM130.731 171L122.171 142.6H125.851L133.451 168.76H132.491L140.091 142.6H143.771L135.211 171H130.731ZM148.555 171V142.6H165.835V145.96H151.995V155.12H165.355V158.4H151.995V167.64H166.155V171H148.555ZM196.124 171V167.64H203.204V145.96H196.124V142.6H213.724V145.96H206.644V167.64H213.724V171H196.124ZM219.708 171V142.6H224.588L234.668 167.08V142.6H238.108V171H233.228L223.148 146.52V171H219.708Z" fill="white"/>
</svg>
