<svg width="163" height="29" viewBox="0 0 163 29" fill="none" xmlns="http://www.w3.org/2000/svg">
<path d="M0.6 29V0.599998H7.32C9.77333 0.599998 11.9067 1.16 13.72 2.28C15.56 3.37333 16.9733 4.98667 17.96 7.12C18.9733 9.22667 19.48 11.8 19.48 14.84C19.48 17.88 18.9733 20.4533 17.96 22.56C16.9733 24.6667 15.56 26.2667 13.72 27.36C11.9067 28.4533 9.77333 29 7.32 29H0.6ZM4.04 25.64H7.12C9.89333 25.64 12.04 24.7467 13.56 22.96C15.1067 21.1467 15.88 18.44 15.88 14.84C15.88 11.24 15.1067 8.53333 13.56 6.72C12.04 4.88 9.89333 3.96 7.12 3.96H4.04V25.64ZM24.1844 29V25.64H31.2644V3.96H24.1844V0.599998H41.7844V3.96H34.7044V25.64H41.7844V29H24.1844ZM54.7288 29L46.1688 0.599998H49.8488L57.4488 26.76H56.4888L64.0888 0.599998H67.7688L59.2088 29H54.7288ZM72.5531 29V0.599998H89.8331V3.96H75.9931V13.12H89.3531V16.4H75.9931V25.64H90.1531V29H72.5531ZM120.122 29V25.64H127.202V3.96H120.122V0.599998H137.722V3.96H130.642V25.64H137.722V29H120.122ZM143.706 29V0.599998H148.586L158.666 25.08V0.599998H162.106V29H157.226L147.146 4.52V29H143.706Z" fill="white"/>
</svg>
