<svg width="298" height="300" viewBox="0 0 298 300" fill="none" xmlns="http://www.w3.org/2000/svg">
<path d="M228.304 278.405L219.08 264.565L226.668 259.507L227.56 260.845L221.549 264.852L224.611 269.445L229.883 265.931L230.775 267.269L225.502 270.783L228.99 276.015L235.48 271.689L236.372 273.027L228.304 278.405ZM242.245 268.994C242.017 268.24 241.796 267.47 241.582 266.682C241.357 265.883 241.149 265.079 240.959 264.271C240.759 263.451 240.575 262.627 240.409 261.798C240.243 260.969 240.105 260.147 239.995 259.334L231.579 256.231L233.178 254.851L240.153 257.644L238.574 250.194L240.191 248.798L241.858 257.599C242.868 257.911 243.886 258.259 244.913 258.64C245.941 259 246.979 259.394 248.025 259.822C249.071 260.251 250.136 260.726 251.221 261.248L249.622 262.628C248.977 262.297 248.21 261.934 247.32 261.54C246.432 261.123 245.508 260.726 244.549 260.349C243.579 259.96 242.659 259.666 241.789 259.466C241.868 260.243 242.01 261.093 242.214 262.015C242.431 262.928 242.673 263.87 242.942 264.843C243.223 265.805 243.506 266.744 243.79 267.662L242.245 268.994ZM257.233 255.712L245.072 244.72C245.278 244.325 245.535 243.921 245.843 243.509C246.139 243.086 246.447 242.685 246.768 242.307C247.088 241.905 247.376 241.562 247.634 241.277C248.503 240.316 249.382 239.677 250.272 239.36C251.173 239.031 252.043 238.976 252.881 239.194C253.718 239.39 254.486 239.804 255.187 240.437C256.409 241.542 257.044 242.784 257.091 244.164C257.149 245.532 256.507 246.958 255.166 248.441L253.734 250.026L258.488 254.323L257.233 255.712ZM252.577 248.98L253.896 247.52C254.529 246.82 254.96 246.152 255.188 245.518C255.417 244.883 255.431 244.271 255.232 243.68C255.032 243.09 254.611 242.505 253.97 241.926C253.151 241.186 252.312 240.837 251.454 240.88C250.583 240.913 249.735 241.386 248.909 242.3C248.555 242.692 248.228 243.066 247.929 243.421C247.628 243.753 247.415 244.013 247.288 244.201L252.577 248.98ZM269.837 241.283L256.213 231.743L257.287 230.21L269.594 238.827L274.109 232.378L275.426 233.301L269.837 241.283ZM282.519 222.338C281.98 223.356 281.233 224.119 280.277 224.627C279.328 225.121 278.168 225.295 276.797 225.15C275.426 225.004 273.85 224.46 272.067 223.518C270.285 222.576 268.944 221.587 268.044 220.55C267.152 219.499 266.643 218.443 266.516 217.381C266.397 216.304 266.611 215.25 267.157 214.217C267.695 213.199 268.442 212.436 269.399 211.928C270.355 211.42 271.518 211.238 272.889 211.384C274.268 211.515 275.848 212.052 277.63 212.994C279.413 213.936 280.75 214.933 281.642 215.984C282.535 217.034 283.037 218.105 283.148 219.195C283.267 220.272 283.057 221.319 282.519 222.338ZM281.042 221.639C281.446 220.875 281.557 220.101 281.374 219.316C281.199 218.518 280.726 217.734 279.956 216.965C279.18 216.175 278.105 215.417 276.733 214.692C275.347 213.959 274.116 213.498 273.039 213.309C271.956 213.098 271.042 213.149 270.298 213.462C269.547 213.753 268.97 214.28 268.566 215.044C268.177 215.779 268.078 216.532 268.268 217.302C268.451 218.051 268.932 218.802 269.709 219.557C270.487 220.312 271.576 221.059 272.976 221.8C274.348 222.525 275.572 223 276.648 223.225C277.709 223.442 278.608 223.419 279.344 223.157C280.087 222.88 280.653 222.374 281.042 221.639ZM288.331 210.167L272.997 204.374C273.017 204.005 273.086 203.595 273.205 203.144C273.309 202.688 273.439 202.232 273.593 201.777C273.739 201.302 273.879 200.885 274.015 200.526C274.722 198.655 275.662 197.411 276.836 196.794C278.009 196.177 279.39 196.168 280.976 196.767C281.949 197.135 282.698 197.734 283.222 198.565C283.731 199.39 284.037 200.301 284.139 201.297C284.773 201.16 285.528 201.018 286.404 200.87C287.287 200.708 288.222 200.565 289.209 200.442C290.187 200.298 291.158 200.194 292.123 200.131L291.402 202.04C290.428 202.082 289.46 202.153 288.499 202.252C287.544 202.336 286.661 202.455 285.85 202.61C285.023 202.76 284.34 202.938 283.801 203.145C283.776 203.255 283.726 203.433 283.65 203.678C283.56 203.918 283.501 204.075 283.472 204.15L282.76 206.036L289.001 208.393L288.331 210.167ZM281.301 205.484L281.877 203.958C282.188 203.134 282.388 202.38 282.475 201.695C282.548 201.004 282.421 200.391 282.092 199.857C281.749 199.317 281.113 198.871 280.185 198.521C279.287 198.182 278.549 198.099 277.97 198.274C277.381 198.428 276.903 198.743 276.535 199.22C276.167 199.696 275.867 200.242 275.635 200.855C275.454 201.334 275.292 201.786 275.148 202.211C274.996 202.615 274.906 202.898 274.879 203.059L281.301 205.484ZM295.025 191.501L278.852 187.624L280.978 178.755L282.541 179.13L280.857 186.155L286.225 187.442L287.702 181.28L289.266 181.655L287.789 187.816L293.904 189.282L295.722 181.697L297.286 182.072L295.025 191.501ZM296.041 150.662C296.05 151.414 295.882 152.072 295.537 152.637C295.192 153.185 294.733 153.607 294.161 153.902C293.572 154.197 292.934 154.349 292.246 154.357C291.558 154.366 290.924 154.229 290.345 153.949C289.765 153.668 289.296 153.257 288.938 152.718C288.563 152.162 288.371 151.509 288.361 150.757C288.352 150.005 288.528 149.354 288.89 148.806C289.235 148.258 289.694 147.836 290.266 147.541C290.838 147.23 291.468 147.07 292.156 147.062C292.844 147.053 293.486 147.197 294.082 147.494C294.661 147.775 295.13 148.185 295.489 148.725C295.848 149.265 296.032 149.91 296.041 150.662ZM297.326 117.534L281.263 121.845L278.899 113.037L280.452 112.62L282.325 119.597L287.656 118.166L286.013 112.047L287.566 111.63L289.209 117.749L295.282 116.119L293.26 108.586L294.813 108.169L297.326 117.534ZM292.87 101.315C292.083 101.291 291.282 101.256 290.467 101.208C289.638 101.167 288.81 101.108 287.983 101.031C287.142 100.96 286.302 100.871 285.463 100.765C284.625 100.658 283.802 100.528 282.996 100.373L277.375 107.364L276.576 105.409L281.444 99.6853L273.879 98.8109L273.07 96.8337L281.944 98.0548C282.562 97.1974 283.215 96.3427 283.904 95.4907C284.572 94.63 285.275 93.772 286.015 92.9166C286.754 92.0613 287.544 91.2026 288.384 90.3405L289.183 92.2955C288.664 92.8016 288.076 93.4136 287.419 94.1317C286.741 94.8409 286.07 95.5903 285.408 96.3797C284.731 97.1751 284.159 97.9534 283.692 98.7146C284.454 98.8872 285.305 99.0234 286.244 99.1232C287.178 99.2083 288.148 99.2782 289.156 99.333C290.158 99.373 291.138 99.4043 292.098 99.4267L292.87 101.315ZM285.046 82.8804L270.768 90.9327C270.458 90.6114 270.157 90.2396 269.863 89.8172C269.556 89.4027 269.274 88.9833 269.016 88.5592C268.737 88.1289 268.503 87.7466 268.314 87.4121C267.677 86.2832 267.35 85.2464 267.331 84.3017C267.305 83.343 267.528 82.5008 268.001 81.7751C268.451 81.0433 269.088 80.4456 269.91 79.9819C271.345 79.1723 272.725 78.9638 274.048 79.3562C275.364 79.7348 276.513 80.7951 277.495 82.5371L278.545 84.3976L284.126 81.2498L285.046 82.8804ZM277.186 85.164L276.219 83.4498C275.755 82.6275 275.259 82.0075 274.729 81.5898C274.2 81.172 273.623 80.9643 273 80.9668C272.377 80.9692 271.689 81.1826 270.937 81.6071C269.975 82.1494 269.379 82.8347 269.148 83.6629C268.903 84.4991 269.083 85.4537 269.688 86.5268C269.948 86.9867 270.198 87.4148 270.44 87.8111C270.66 88.2013 270.839 88.4861 270.977 88.6655L277.186 85.164ZM275.352 66.3536L261.992 76.2593L260.877 74.7556L272.946 65.8075L268.257 59.484L269.549 58.5263L275.352 66.3536ZM261.396 48.3254C262.191 49.1588 262.678 50.1096 262.857 51.1775C263.025 52.2339 262.822 53.3891 262.249 54.6432C261.677 55.8972 260.661 57.2201 259.203 58.6118C257.744 60.0035 256.381 60.9617 255.112 61.4865C253.833 61.9997 252.669 62.1478 251.622 61.9308C250.563 61.7023 249.631 61.1655 248.825 60.3204C248.029 59.4869 247.542 58.5362 247.364 57.4682C247.185 56.4003 247.382 55.2393 247.955 53.9852C248.516 52.7196 249.526 51.3909 250.985 49.9992C252.444 48.6076 253.813 47.6551 255.092 47.1419C256.372 46.6288 257.546 46.4922 258.616 46.7323C259.674 46.9609 260.601 47.4919 261.396 48.3254ZM260.265 49.5041C259.669 48.879 258.97 48.5287 258.168 48.4533C257.355 48.3663 256.462 48.5661 255.489 49.0525C254.493 49.5384 253.433 50.317 252.31 51.3884C251.176 52.4708 250.349 53.4925 249.828 54.4536C249.285 55.4141 249.044 56.2968 249.104 57.1017C249.142 57.9061 249.459 58.6208 250.055 59.2459C250.629 59.8479 251.312 60.1807 252.103 60.2446C252.871 60.3079 253.736 60.0905 254.698 59.5925C255.66 59.0945 256.715 58.2988 257.861 57.2053C258.984 56.1339 259.822 55.1238 260.376 54.1749C260.919 53.237 261.182 52.3774 261.167 51.5962C261.14 50.8034 260.839 50.106 260.265 49.5041ZM251.697 38.952L241.326 51.6461C240.983 51.5102 240.616 51.314 240.226 51.0576C239.826 50.8136 239.436 50.5459 239.054 50.2546C238.649 49.9656 238.299 49.6996 238.001 49.4567C236.452 48.1913 235.572 46.9041 235.361 45.595C235.149 44.2859 235.58 42.9746 236.653 41.6612C237.311 40.8558 238.117 40.3368 239.072 40.1042C240.016 39.884 240.977 39.8839 241.954 40.1039C242.026 39.4599 242.131 38.6988 242.27 37.8206C242.397 36.9323 242.559 36.0006 242.756 35.0256C242.931 34.0528 243.142 33.0991 243.389 32.1646L244.969 33.4552C244.699 34.3921 244.458 35.3317 244.246 36.2741C244.022 37.2064 243.854 38.0818 243.743 38.9003C243.622 39.7312 243.574 40.4354 243.598 41.0129C243.695 41.0713 243.847 41.1753 244.056 41.3249C244.254 41.4869 244.384 41.5932 244.446 41.6438L246.007 42.9193L250.229 37.7524L251.697 38.952ZM245.02 44.1274L243.757 43.0948C243.075 42.5381 242.423 42.1091 241.802 41.8078C241.17 41.5189 240.549 41.4451 239.937 41.5862C239.316 41.7398 238.692 42.2007 238.064 42.9689C237.457 43.7123 237.144 44.3863 237.125 44.9909C237.084 45.5977 237.23 46.1514 237.565 46.6522C237.9 47.1529 238.321 47.6108 238.829 48.0258C239.226 48.3497 239.603 48.6472 239.96 48.9183C240.294 49.1916 240.533 49.3665 240.678 49.4429L245.02 44.1274ZM236.133 26.6625L227.287 40.7473L219.564 35.897L220.419 34.5352L226.537 38.3772L229.472 33.7026L224.107 30.3329L224.962 28.9712L230.328 32.3409L233.672 27.0159L227.066 22.8676L227.922 21.5058L236.133 26.6625ZM197.773 12.6609C198.49 12.8902 199.061 13.2577 199.487 13.7637C199.898 14.2647 200.152 14.8335 200.251 15.4698C200.345 16.1215 200.287 16.7749 200.077 17.4302C199.868 18.0854 199.538 18.6434 199.088 19.1042C198.638 19.5651 198.1 19.8802 197.475 20.0496C196.829 20.2294 196.149 20.2047 195.432 19.9755C194.716 19.7462 194.155 19.3735 193.749 18.8572C193.338 18.3561 193.084 17.7874 192.985 17.151C192.871 16.5098 192.919 15.8615 193.128 15.2062C193.338 14.551 193.678 13.9878 194.148 13.5166C194.598 13.0558 195.135 12.7407 195.761 12.5713C196.386 12.4018 197.057 12.4317 197.773 12.6609ZM166.753 0.966041L165.754 17.568L156.651 17.0203L156.747 15.4152L163.958 15.8491L164.29 10.339L157.965 9.95853L158.062 8.35344L164.386 8.73393L164.764 2.45728L156.978 1.98887L157.075 0.383769L166.753 0.966041ZM149.958 0.0531629C149.684 0.791922 149.395 1.53968 149.09 2.29642C148.786 3.06914 148.466 3.83488 148.129 4.59364C147.793 5.36838 147.441 6.13614 147.072 6.89693C146.704 7.65771 146.317 8.39555 145.914 9.11046L150.744 16.6687L148.636 16.802L144.766 10.3614L141.523 17.2518L139.391 17.3866L143.381 9.36681C142.765 8.50794 142.164 7.61612 141.576 6.69135C140.974 5.78356 140.385 4.84283 139.811 3.86915C139.236 2.89547 138.674 1.87288 138.126 0.80137L140.234 0.668086C140.547 1.32158 140.94 2.07433 141.41 2.92632C141.866 3.79529 142.362 4.66972 142.899 5.54961C143.437 6.44547 143.992 7.23602 144.564 7.92126C144.971 7.25427 145.371 6.49146 145.766 5.63285C146.145 4.77524 146.521 3.87772 146.894 2.94027C147.252 2.00384 147.594 1.08438 147.922 0.181903L149.958 0.0531629ZM129.989 1.58177L133.048 17.6859C132.644 17.8765 132.196 18.0432 131.701 18.1859C131.21 18.3443 130.723 18.4776 130.238 18.5859C129.741 18.7129 129.304 18.8122 128.927 18.8839C127.654 19.1257 126.567 19.1042 125.666 18.8193C124.749 18.5374 124.022 18.0565 123.486 17.3766C122.937 16.7155 122.575 15.9212 122.398 14.9938C122.091 13.3747 122.335 12.0011 123.13 10.8728C123.91 9.74756 125.282 8.99832 127.247 8.62512L129.346 8.22654L128.15 1.93109L129.989 1.58177ZM129.637 9.75914L127.703 10.1264C126.776 10.3025 126.03 10.5746 125.464 10.9425C124.899 11.3105 124.518 11.79 124.321 12.3812C124.124 12.9724 124.106 13.6924 124.267 14.5412C124.473 15.6258 124.931 16.41 125.642 16.8939C126.356 17.3935 127.318 17.5283 128.528 17.2984C129.047 17.1999 129.533 17.0995 129.986 16.9972C130.426 16.9136 130.753 16.8352 130.967 16.7619L129.637 9.75914ZM111.23 5.4781L116.354 21.3011L114.573 21.8779L109.944 7.58461L102.455 10.0098L101.96 8.48L111.23 5.4781ZM89.6947 12.9633C90.7374 12.4736 91.7935 12.3134 92.863 12.4829C93.918 12.6591 94.9492 13.2177 95.9568 14.1587C96.9644 15.0996 97.8966 16.4824 98.7536 18.3072C99.6106 20.132 100.087 21.7291 100.182 23.0985C100.263 24.4748 100.034 25.6251 99.4958 26.5495C98.9433 27.4807 98.1384 28.1946 97.0812 28.6911C96.0385 29.1808 94.9824 29.341 93.9129 29.1715C92.8434 29.0021 91.8049 28.4469 90.7973 27.506C89.7753 26.5718 88.8358 25.1924 87.9788 23.3676C87.1218 21.5428 86.6529 19.9423 86.5722 18.5661C86.4916 17.1898 86.7347 16.0327 87.3018 15.0947C87.8543 14.1635 88.6519 13.453 89.6947 12.9633ZM90.4536 14.4099C89.6716 14.7772 89.1176 15.329 88.7917 16.0654C88.4514 16.8086 88.3574 17.7188 88.5099 18.7962C88.6546 19.8949 89.0569 21.1466 89.7167 22.5514C90.3832 23.9707 91.0896 25.0796 91.8358 25.8781C92.5744 26.6979 93.3349 27.2069 94.1174 27.4051C94.8921 27.6245 95.6706 27.5506 96.4526 27.1833C97.2057 26.8296 97.7379 26.288 98.0493 25.5584C98.353 24.8501 98.4214 23.9607 98.2545 22.8901C98.0875 21.8195 97.6674 20.5674 96.994 19.1336C96.3343 17.7288 95.6424 16.6131 94.9183 15.7865C94.201 14.9744 93.4695 14.4518 92.7237 14.2187C91.9634 13.9925 91.2067 14.0562 90.4536 14.4099ZM77.7285 19.189L86.4913 33.0423C86.2537 33.3251 85.9516 33.6108 85.5851 33.8994C85.2272 34.2015 84.8497 34.4877 84.4526 34.7578C84.0505 35.05 83.6872 35.2987 83.3627 35.504C81.6724 36.5731 80.1729 37.001 78.8641 36.7876C77.5554 36.5742 76.4476 35.7508 75.541 34.3175C74.9851 33.4386 74.7477 32.5096 74.8289 31.5305C74.9186 30.565 75.2224 29.6534 75.7401 28.7959C75.1518 28.5243 74.4631 28.1837 73.674 27.7741C72.8713 27.3731 72.0386 26.9248 71.1761 26.4291C70.3085 25.9555 69.4705 25.4538 68.6621 24.9239L70.3861 23.8334C71.1896 24.3853 72.0049 24.9109 72.8318 25.4102C73.6453 25.918 74.4227 26.3539 75.1641 26.7179C75.9141 27.0955 76.5668 27.3642 77.1223 27.524C77.2084 27.4506 77.3554 27.3387 77.5632 27.1884C77.7795 27.0515 77.9215 26.9617 77.9891 26.9189L79.6929 25.8412L76.1262 20.2026L77.7285 19.189ZM80.5268 27.1596L79.1476 28.032C78.4038 28.5025 77.7908 28.9849 77.3084 29.4794C76.8346 29.9873 76.568 30.5535 76.5086 31.178C76.4578 31.816 76.6975 32.5542 77.2278 33.3925C77.741 34.2038 78.2814 34.714 78.849 34.9229C79.4116 35.1539 79.9834 35.1898 80.5642 35.0307C81.1451 34.8715 81.7127 34.6166 82.2671 34.2659C82.6999 33.9922 83.1012 33.7288 83.4713 33.4758C83.8364 33.2449 84.078 33.0731 84.1961 32.9605L80.5268 27.1596ZM61.1475 30.0678L71.7116 42.9139L64.6675 48.7066L63.6461 47.4646L69.2258 42.8762L65.7197 38.6127L60.8259 42.6371L59.8045 41.3951L64.6983 37.3707L60.7044 32.514L54.6799 37.4683L53.6585 36.2263L61.1475 30.0678ZM35.6839 62.0062C36.1299 61.4006 36.6606 60.9768 37.2761 60.7346C37.8821 60.5053 38.5024 60.4455 39.137 60.5552C39.7845 60.6743 40.3852 60.9379 40.9392 61.3459C41.4932 61.7538 41.9167 62.2446 42.2097 62.818C42.5027 63.3915 42.6296 64.0016 42.5905 64.6484C42.5547 65.3175 42.3139 65.9548 41.8679 66.5604C41.422 67.1659 40.8896 67.5785 40.2707 67.7983C39.6646 68.0276 39.0443 68.0875 38.4098 67.9778C37.7657 67.881 37.1667 67.6286 36.6127 67.2207C36.0587 66.8127 35.6335 66.3108 35.3371 65.7149C35.0441 65.1415 34.9171 64.5314 34.9563 63.8846C34.9955 63.2378 35.238 62.6117 35.6839 62.0062ZM14.6876 87.6634L30.1057 93.9006L26.6856 102.355L25.195 101.752L27.9041 95.0552L22.7869 92.9851L20.4108 98.8587L18.9202 98.2557L21.2963 92.3821L15.4672 90.024L12.5421 97.2548L11.0514 96.6517L14.6876 87.6634ZM8.47209 103.292C9.08618 103.786 9.7039 104.297 10.3253 104.826C10.9621 105.358 11.5871 105.905 12.2002 106.464C12.8289 107.028 13.4457 107.605 14.0507 108.196C14.6556 108.786 15.2333 109.386 15.7837 109.995L24.4822 107.805L23.9416 109.847L16.6071 111.48L22.1168 116.737L21.5699 118.802L15.2252 112.479C14.2157 112.791 13.1794 113.079 12.1162 113.344C11.0644 113.628 9.98573 113.889 8.88025 114.126C7.77476 114.363 6.62698 114.572 5.43688 114.753L5.97757 112.711C6.69681 112.621 7.53501 112.487 8.49219 112.31C9.46073 112.153 10.4472 111.959 11.4517 111.728C12.4717 111.502 13.3973 111.225 14.2284 110.899C13.7245 110.302 13.1277 109.681 12.4381 109.035C11.7444 108.404 11.0121 107.763 10.2411 107.112C9.46594 106.477 8.70221 105.861 7.94984 105.264L8.47209 103.292ZM3.60347 122.717L19.849 124.903C19.9024 125.346 19.9188 125.825 19.8981 126.339C19.8932 126.855 19.8656 127.36 19.8153 127.853C19.7788 128.365 19.7349 128.811 19.6837 129.192C19.5108 130.476 19.1469 131.501 18.592 132.265C18.0349 133.046 17.3491 133.584 16.5346 133.878C15.7339 134.19 14.8657 134.283 13.9301 134.157C12.2969 133.937 11.0706 133.271 10.2515 132.16C9.43026 131.065 9.15299 129.526 9.41971 127.544L9.70457 125.427L3.35381 124.573L3.60347 122.717ZM11.2506 125.635L10.9882 127.586C10.8623 128.521 10.8846 129.315 11.0551 129.968C11.2256 130.62 11.5601 131.134 12.0587 131.507C12.5573 131.881 13.2348 132.126 14.091 132.241C15.1852 132.388 16.0741 132.201 16.7577 131.68C17.4572 131.16 17.8891 130.29 18.0535 129.069C18.1239 128.546 18.1821 128.053 18.2281 127.591C18.2879 127.147 18.3168 126.812 18.315 126.586L11.2506 125.635ZM1.36786 141.746L17.999 141.918L17.9797 143.79L2.95647 143.635L2.87531 151.506L1.2674 151.49L1.36786 141.746ZM1.605 164.545C1.47461 163.4 1.66075 162.349 2.16342 161.39C2.66791 160.446 3.52706 159.648 4.74089 158.994C5.95471 158.341 7.56314 157.9 9.56618 157.672C11.5692 157.444 13.2347 157.503 14.5626 157.851C15.8924 158.215 16.9091 158.8 17.6128 159.605C18.3183 160.427 18.7371 161.418 18.8693 162.578C18.9997 163.723 18.8136 164.775 18.3109 165.734C17.8082 166.693 16.95 167.499 15.7362 168.153C14.5242 168.822 12.9166 169.271 10.9136 169.499C8.91054 169.727 7.24415 169.66 5.91443 169.296C4.5847 168.932 3.56618 168.331 2.85886 167.494C2.15335 166.673 1.73539 165.69 1.605 164.545ZM3.21836 164.289C3.31616 165.147 3.66177 165.849 4.25519 166.393C4.85043 166.953 5.68282 167.333 6.75235 167.534C7.8396 167.748 9.15423 167.767 10.6963 167.592C12.2542 167.414 13.5308 167.1 14.5261 166.648C15.5391 166.211 16.2646 165.653 16.7027 164.975C17.1585 164.311 17.3375 163.55 17.2397 162.692C17.1455 161.865 16.8026 161.187 16.211 160.659C15.6371 160.145 14.8163 159.795 13.7485 159.611C12.6808 159.427 11.36 159.424 9.78622 159.603C8.2442 159.779 6.96578 160.078 5.95098 160.499C4.95207 160.919 4.22291 161.445 3.7635 162.077C3.3059 162.725 3.12419 163.462 3.21836 164.289ZM3.67555 177.875L19.6038 174.003C19.7958 174.319 19.9699 174.696 20.1261 175.136C20.2979 175.572 20.4482 176.021 20.5771 176.483C20.7254 176.958 20.8449 177.382 20.9355 177.755C21.4079 179.698 21.3337 181.256 20.7128 182.428C20.092 183.599 18.9576 184.385 17.3096 184.786C16.299 185.032 15.3429 184.959 14.4413 184.569C13.5552 184.175 12.7887 183.596 12.1417 182.831C11.6962 183.302 11.1533 183.845 10.5128 184.462C9.87611 185.094 9.18501 185.74 8.43949 186.399C7.71329 187.069 6.96988 187.703 6.20924 188.299L5.72744 186.317C6.50741 185.732 7.26615 185.128 8.00368 184.504C8.74499 183.896 9.40667 183.298 9.98873 182.712C10.5863 182.123 11.0497 181.59 11.3788 181.115C11.3368 181.01 11.2778 180.835 11.2018 180.59C11.1413 180.341 11.1016 180.178 11.0827 180.1L10.6066 178.141L4.12334 179.717L3.67555 177.875ZM12.1225 177.773L12.5079 179.359C12.7157 180.214 12.9767 180.949 13.2909 181.564C13.6207 182.175 14.0719 182.609 14.6445 182.865C15.2327 183.117 16.0088 183.126 16.9727 182.892C17.9056 182.665 18.5617 182.316 18.9413 181.845C19.3401 181.386 19.557 180.856 19.592 180.255C19.627 179.654 19.567 179.034 19.4121 178.397C19.2911 177.899 19.17 177.435 19.0486 177.003C18.9466 176.583 18.8612 176.3 18.7923 176.152L12.1225 177.773ZM8.68371 197.063L24.2239 191.137L27.4737 199.658L25.9713 200.231L23.3971 193.481L18.2395 195.448L20.4972 201.368L18.9948 201.941L16.737 196.021L10.8618 198.262L13.6412 205.55L12.1388 206.123L8.68371 197.063ZM30.8903 231.337C30.4568 230.723 30.2225 230.085 30.1873 229.425C30.1614 228.777 30.3007 228.17 30.6054 227.602C30.9231 227.026 31.363 226.539 31.9252 226.143C32.4874 225.746 33.0869 225.499 33.7236 225.403C34.3602 225.306 34.9792 225.378 35.5804 225.62C36.2039 225.865 36.7324 226.295 37.1659 226.91C37.5994 227.524 37.8226 228.16 37.8355 228.817C37.8614 229.464 37.7221 230.071 37.4174 230.639C37.122 231.219 36.6932 231.708 36.131 232.104C35.5688 232.501 34.9582 232.746 34.2992 232.839C33.6626 232.935 33.0436 232.863 32.4424 232.621C31.8412 232.38 31.3238 231.951 30.8903 231.337ZM48.5778 259.382L59.4011 246.754L66.3258 252.689L65.2794 253.91L59.7943 249.209L56.2022 253.4L61.013 257.523L59.9666 258.744L55.1557 254.621L51.0638 259.395L56.9862 264.471L55.9398 265.692L48.5778 259.382ZM61.412 270.253C62.0761 269.829 62.758 269.407 63.4576 268.988C64.1661 268.555 64.8835 268.137 65.6098 267.735C66.345 267.32 67.0891 266.92 67.8421 266.536C68.5951 266.151 69.3483 265.796 70.1015 265.469L70.8084 256.527L72.5698 257.692L71.7712 265.164L78.5148 261.625L80.2963 262.803L72.2762 266.793C72.2489 267.849 72.1907 268.923 72.1014 270.015C72.0343 271.103 71.9362 272.208 71.807 273.331C71.6779 274.454 71.509 275.609 71.3002 276.794L69.5388 275.629C69.6827 274.918 69.8239 274.081 69.9624 273.118C70.1232 272.15 70.255 271.153 70.3578 270.128C70.4695 269.089 70.5037 268.124 70.4606 267.232C69.7338 267.519 68.9541 267.885 68.1215 268.332C67.3021 268.788 66.4607 269.276 65.5973 269.799C64.7471 270.33 63.9192 270.856 63.1134 271.379L61.412 270.253ZM78.2608 281.078L85.5222 266.382C85.9592 266.473 86.4178 266.611 86.898 266.794C87.3854 266.964 87.855 267.151 88.3067 267.357C88.7799 267.555 89.1887 267.739 89.5329 267.909C90.6948 268.483 91.5495 269.155 92.097 269.925C92.6588 270.703 92.9489 271.524 92.9673 272.39C93.0071 273.248 92.8179 274.101 92.3998 274.947C91.6697 276.425 90.6474 277.374 89.3328 277.795C88.0325 278.224 86.4858 277.995 84.6928 277.109L82.7778 276.162L79.9391 281.907L78.2608 281.078ZM83.4688 274.764L85.2332 275.636C86.0795 276.054 86.8391 276.286 87.5119 276.333C88.1848 276.38 88.778 276.227 89.2915 275.874C89.805 275.521 90.2532 274.957 90.6359 274.183C91.1249 273.193 91.2316 272.291 90.9558 271.476C90.6872 270.648 90.0006 269.96 88.8961 269.415C88.4227 269.181 87.9745 268.968 87.5514 268.777C87.1497 268.578 86.8414 268.444 86.6264 268.373L83.4688 274.764ZM95.5806 289.271L101.027 273.556L102.795 274.169L97.876 288.365L105.314 290.943L104.787 292.462L95.5806 289.271ZM117.276 296.277C116.149 296.039 115.21 295.53 114.458 294.75C113.723 293.974 113.237 292.906 113.001 291.548C112.764 290.19 112.854 288.525 113.27 286.552C113.687 284.58 114.27 283.018 115.02 281.868C115.785 280.722 116.661 279.942 117.648 279.529C118.65 279.119 119.723 279.035 120.865 279.276C121.993 279.514 122.932 280.023 123.683 280.803C124.434 281.583 124.928 282.652 125.164 284.01C125.416 285.372 125.334 287.039 124.918 289.011C124.501 290.984 123.91 292.543 123.145 293.69C122.38 294.837 121.488 295.613 120.47 296.02C119.468 296.429 118.403 296.515 117.276 296.277ZM117.542 294.666C118.388 294.844 119.163 294.738 119.866 294.347C120.586 293.959 121.21 293.29 121.738 292.338C122.285 291.374 122.718 290.133 123.039 288.615C123.363 287.08 123.468 285.77 123.354 284.683C123.259 283.584 122.959 282.719 122.455 282.089C121.969 281.447 121.303 281.037 120.458 280.858C119.644 280.686 118.893 280.797 118.204 281.192C117.535 281.574 116.944 282.242 116.432 283.197C115.92 284.152 115.5 285.404 115.173 286.954C114.852 288.472 114.731 289.779 114.811 290.875C114.893 291.956 115.162 292.814 115.616 293.449C116.086 294.088 116.728 294.494 117.542 294.666ZM130.575 298.525L131.942 282.19C132.302 282.108 132.716 282.062 133.182 282.053C133.65 282.028 134.123 282.028 134.603 282.052C135.1 282.061 135.54 282.082 135.922 282.114C137.915 282.281 139.37 282.844 140.285 283.804C141.2 284.763 141.587 286.088 141.445 287.778C141.359 288.815 140.988 289.699 140.332 290.431C139.678 291.147 138.886 291.691 137.956 292.062C138.261 292.634 138.605 293.321 138.988 294.123C139.386 294.927 139.78 295.787 140.169 296.703C140.575 297.604 140.941 298.51 141.266 299.42L139.233 299.25C138.925 298.325 138.592 297.414 138.234 296.517C137.891 295.621 137.534 294.805 137.162 294.067C136.792 293.314 136.433 292.706 136.086 292.243C135.974 292.25 135.789 292.25 135.532 292.245C135.277 292.223 135.11 292.209 135.03 292.203L133.021 292.035L132.465 298.683L130.575 298.525ZM133.151 290.48L134.778 290.616C135.654 290.69 136.434 290.675 137.117 290.571C137.802 290.452 138.356 290.161 138.78 289.699C139.205 289.221 139.459 288.487 139.542 287.499C139.622 286.542 139.499 285.809 139.172 285.3C138.863 284.776 138.428 284.403 137.869 284.18C137.31 283.956 136.703 283.817 136.049 283.762C135.539 283.72 135.06 283.688 134.612 283.666C134.182 283.63 133.886 283.621 133.724 283.64L133.151 290.48ZM150.363 299.853L149.704 283.234L158.817 282.873L158.88 284.479L151.662 284.765L151.881 290.281L158.212 290.03L158.275 291.637L151.944 291.888L152.193 298.171L159.987 297.862L160.051 299.469L150.363 299.853ZM190.044 289.842C189.32 290.044 188.64 290.051 188.006 289.863C187.388 289.67 186.862 289.335 186.43 288.857C185.994 288.365 185.683 287.787 185.498 287.124C185.313 286.462 185.282 285.814 185.404 285.182C185.527 284.55 185.803 283.991 186.232 283.506C186.673 283.001 187.255 282.647 187.979 282.445C188.704 282.243 189.377 282.246 190 282.454C190.619 282.647 191.144 282.982 191.576 283.459C192.024 283.932 192.34 284.5 192.525 285.163C192.71 285.826 192.736 286.483 192.602 287.135C192.48 287.767 192.204 288.326 191.774 288.811C191.345 289.296 190.768 289.64 190.044 289.842Z" fill="white"/>
</svg>
